<?xml version="1.0" standalone="no"?>
<!DOCTYPE svg PUBLIC "-//W3C//DTD SVG 20010904//EN"
 "http://www.w3.org/TR/2001/REC-SVG-20010904/DTD/svg10.dtd">
<svg version="1.0" xmlns="http://www.w3.org/2000/svg"
 width="16.000000pt" height="16.000000pt" viewBox="0 0 16.000000 16.000000"
 preserveAspectRatio="xMidYMid meet">
<metadata>
Created by potrace 1.11, written by Peter Selinger 2001-2013
</metadata>
<g transform="translate(0.000000,16.000000) scale(0.006154,-0.006154)"
fill="#000000" stroke="none">
<path d="M0 1299 l0 -1300 373 3 c204 2 380 7 390 12 11 5 16 15 12 26 -4 12
1 20 17 24 14 5 18 9 11 13 -7 2 -13 9 -13 14 0 6 5 7 12 3 8 -5 9 -2 5 9 -5
12 -1 17 12 17 15 0 18 5 13 22 -3 13 -1 19 5 15 6 -4 13 2 16 13 3 11 10 20
16 20 6 0 7 -7 4 -17 -4 -11 -3 -14 5 -9 7 4 12 16 12 27 0 10 4 19 10 19 5 0
7 6 4 13 -5 14 44 47 70 47 9 0 16 -5 16 -12 0 -6 6 -4 13 7 8 10 19 15 25 12
6 -5 8 1 5 14 -5 19 -4 20 15 10 18 -9 21 -9 16 2 -4 11 1 13 20 10 22 -4 26
-2 26 17 0 17 4 20 20 15 12 -4 20 -2 20 5 0 6 -4 8 -10 5 -6 -3 -7 1 -4 9 3
9 15 16 25 16 10 0 19 7 19 15 0 8 7 15 16 15 14 0 15 -2 3 -18 -13 -16 -13
-16 6 -2 18 14 27 23 67 70 7 8 12 18 10 22 -1 5 2 8 8 8 5 0 15 19 22 43 16
57 19 87 7 87 -12 0 -12 47 1 55 7 4 6 13 -1 26 -5 11 -8 40 -5 64 3 33 1 43
-8 39 -9 -3 -17 11 -25 43 -7 26 -17 53 -23 60 -6 7 -8 22 -5 33 3 11 1 20 -5
20 -6 0 -7 7 -4 16 3 8 2 12 -4 9 -6 -3 -10 1 -10 10 0 10 5 13 13 9 8 -6 8
-3 -1 9 -8 9 -16 29 -17 44 -2 15 -7 49 -10 75 -3 26 -9 58 -15 72 -6 17 -6
27 1 32 6 4 3 14 -8 27 -14 15 -14 19 -3 15 11 -4 15 3 15 28 0 19 -4 34 -8
34 -4 0 -3 10 4 21 8 15 8 19 0 15 -6 -4 -11 -3 -11 3 0 5 -8 17 -17 27 -10
10 -13 19 -7 21 6 2 9 20 7 40 -1 21 3 40 10 45 8 5 6 8 -6 8 -17 0 -17 1 -3
16 19 19 21 45 4 63 -11 11 -10 13 5 8 12 -5 17 -1 17 13 0 10 5 22 10 25 6 4
8 10 5 15 -3 4 2 10 10 14 8 3 12 12 9 21 -4 11 0 15 16 15 19 0 20 2 10 15
-10 12 -9 15 7 15 29 0 35 11 18 36 -18 28 -12 48 19 62 21 9 23 8 19 -9 -3
-10 -10 -16 -16 -12 -7 4 -8 0 -3 -12 6 -16 4 -16 -10 -4 -15 12 -17 12 -12
-1 10 -31 34 -21 49 22 15 39 19 43 50 43 19 0 40 -4 47 -9 6 -4 12 -5 12 0 0
4 7 -1 15 -12 9 -12 14 -14 15 -6 0 7 4 11 8 8 4 -2 14 -1 22 4 9 5 20 5 28
-2 19 -16 126 -23 116 -7 -4 8 -3 9 5 5 6 -4 18 -2 26 4 12 10 15 10 15 0 0
-9 4 -9 17 1 15 12 16 12 8 -1 -6 -11 -4 -11 11 2 10 9 24 17 29 17 40 3 82
17 93 30 8 9 11 10 7 4 -4 -8 0 -13 9 -13 9 0 16 4 16 8 0 5 11 14 25 20 15 7
25 8 25 2 0 -6 7 -10 16 -10 8 0 13 4 9 9 -6 11 19 27 50 32 11 2 25 10 31 17
5 8 22 15 36 15 22 2 24 5 15 16 -8 10 -8 12 -1 8 6 -3 24 7 39 23 16 17 37
30 47 30 10 0 18 5 18 10 0 6 5 10 11 10 5 0 7 -5 3 -12 -4 -7 -3 -8 5 -4 6 4
9 12 5 17 -3 6 5 21 19 33 18 17 22 27 15 34 -7 7 -3 10 15 8 16 -2 24 1 21 8
-3 7 4 21 14 31 10 11 21 28 24 37 5 11 14 15 27 11 16 -4 24 3 38 31 9 20 22
36 29 36 7 0 16 9 19 21 4 12 12 18 21 15 9 -3 17 7 24 34 11 40 24 50 34 28
3 -7 3 -3 0 10 -3 12 -2 21 3 20 12 -4 15 5 7 25 -4 12 1 34 15 59 25 47 29
77 7 59 -11 -9 -15 -9 -18 1 -4 10 -103 14 -484 16 -263 2 -525 1 -581 -3 -96
-6 -102 -8 -107 -31 -4 -13 -13 -24 -21 -24 -8 0 -14 -3 -14 -7 3 -20 -2 -34
-11 -28 -5 3 -7 0 -4 -8 3 -8 -8 -29 -25 -47 -17 -19 -28 -37 -25 -42 3 -4 0
-8 -5 -8 -6 0 -11 -7 -11 -15 0 -8 -6 -15 -14 -15 -8 0 -18 -5 -22 -12 -4 -7
-3 -8 4 -4 7 4 12 2 12 -3 0 -6 -4 -11 -10 -11 -5 0 -10 -8 -10 -19 0 -10 -10
-26 -22 -35 -13 -9 -17 -14 -10 -11 19 9 14 -7 -13 -48 -14 -20 -23 -42 -20
-47 3 -6 1 -10 -4 -10 -6 0 -11 -9 -11 -21 0 -12 -8 -23 -20 -26 -11 -3 -20
-11 -20 -17 0 -13 -58 -14 -78 -2 -7 4 -12 2 -12 -4 0 -7 -8 -9 -20 -5 -11 4
-20 2 -20 -4 0 -6 -5 -11 -11 -11 -5 0 -7 5 -3 11 4 7 -3 6 -17 -2 -13 -7 -42
-13 -65 -13 -23 -1 -49 -7 -58 -15 -14 -12 -19 -12 -25 -2 -5 7 -19 11 -32 10
-13 -2 -30 0 -36 4 -8 5 -13 3 -13 -3 0 -6 -11 -5 -30 5 -23 12 -30 12 -30 3
0 -9 -3 -9 -9 2 -6 8 -7 18 -5 22 3 4 -2 5 -10 2 -9 -3 -27 3 -42 15 -14 11
-30 18 -35 15 -5 -3 -9 0 -9 7 0 7 -16 31 -35 54 -19 23 -31 45 -27 49 3 4 -1
4 -11 0 -15 -5 -19 0 -16 22 0 3 -8 13 -19 22 -10 9 -19 24 -19 33 0 9 -10 37
-22 62 -12 26 -20 51 -16 57 3 5 1 10 -6 10 -7 0 -9 11 -5 34 5 24 2 37 -9 46
-8 7 -15 23 -15 35 0 30 -28 35 -191 35 l-129 0 0 -1301z m2506 1194 c-8 -15
-15 -22 -16 -15 0 17 20 55 27 49 2 -3 -2 -18 -11 -34z m-129 -208 c-4 -8 -12
-15 -19 -14 -10 0 -10 2 0 6 6 2 12 12 12 21 0 8 3 13 6 9 4 -3 4 -13 1 -22z
m-1127 -388 c0 -7 -4 -6 -10 3 -7 12 -10 8 -10 -15 0 -22 -3 -26 -9 -16 -6 9
-6 22 0 33 10 19 29 16 29 -5z m25 -46 c-9 -16 -25 -3 -18 15 4 10 9 12 15 6
6 -6 7 -15 3 -21z"/>
<path d="M2562 2527 c-8 -9 -8 -17 0 -27 8 -13 9 -12 5 1 -3 9 0 22 6 28 6 6
8 11 5 11 -3 0 -10 -6 -16 -13z"/>
</g>
</svg>
