<?xml version="1.0" encoding="utf-8"?>
<!-- Generator: Adobe Illustrator 16.0.3, SVG Export Plug-In . SVG Version: 6.00 Build 0)  -->
<!DOCTYPE svg PUBLIC "-//W3C//DTD SVG 1.1//EN" "http://www.w3.org/Graphics/SVG/1.1/DTD/svg11.dtd">
<svg version="1.1" id="Layer_1" xmlns="http://www.w3.org/2000/svg" xmlns:xlink="http://www.w3.org/1999/xlink" x="0px" y="0px"
	 width="30.047px" height="30.048px" viewBox="0 0 30.047 30.048" enable-background="new 0 0 30.047 30.048" xml:space="preserve">
<g>
	<g>
		<path fill="#FFFFFF" d="M15.024,30.048C6.74,30.048,0,23.308,0,15.023S6.74,0,15.024,0c8.284,0,15.023,6.739,15.023,15.023
			S23.308,30.048,15.024,30.048z M15.024,1.963c-7.202,0-13.061,5.859-13.061,13.061c0,7.202,5.859,13.062,13.061,13.062
			s13.06-5.859,13.06-13.062C28.084,7.822,22.226,1.963,15.024,1.963z"/>
	</g>
	<g>
		<rect x="14.148" y="7.722" fill="#FFFFFF" width="1.752" height="10.047"/>
		<rect x="9.352" y="19.911" fill="#FFFFFF" width="11.343" height="1.752"/>
		<polygon fill="#FFFFFF" points="15.024,18.929 10.183,13.968 11.436,12.745 15.024,16.421 18.611,12.745 19.865,13.968 		"/>
	</g>
</g>
</svg>
