<?xml version="1.0" encoding="utf-8"?>
<!-- Generator: Adobe Illustrator 16.0.3, SVG Export Plug-In . SVG Version: 6.00 Build 0)  -->
<!DOCTYPE svg PUBLIC "-//W3C//DTD SVG 1.1//EN" "http://www.w3.org/Graphics/SVG/1.1/DTD/svg11.dtd">
<svg version="1.1" id="Layer_1" xmlns="http://www.w3.org/2000/svg" xmlns:xlink="http://www.w3.org/1999/xlink" x="0px" y="0px"
	 width="30.047px" height="30.048px" viewBox="0 0 30.047 30.048" enable-background="new 0 0 30.047 30.048" xml:space="preserve">
<g>
	<path fill="#FFFFFF" d="M15.024,0C6.74,0,0,6.74,0,15.024c0,8.284,6.74,15.024,15.024,15.024c8.284,0,15.023-6.74,15.023-15.024
		C30.047,6.74,23.308,0,15.024,0z M15.024,28.085c-7.202,0-13.061-5.859-13.061-13.061S7.822,1.963,15.024,1.963
		s13.061,5.859,13.061,13.061S22.226,28.085,15.024,28.085z"/>
	<path fill="#FFFFFF" d="M7.427,19.713H22.62V9.721H7.427V19.713z M9.092,18.048v-5.272l5.932,3.978l5.931-3.988v5.282H9.092z
		 M10.545,11.386h8.944l-4.465,3.003L10.545,11.386z"/>
</g>
</svg>
