<?xml version="1.0" encoding="utf-8"?>
<!-- Generator: Adobe Illustrator 16.0.3, SVG Export Plug-In . SVG Version: 6.00 Build 0)  -->
<!DOCTYPE svg PUBLIC "-//W3C//DTD SVG 1.1//EN" "http://www.w3.org/Graphics/SVG/1.1/DTD/svg11.dtd">
<svg version="1.1" id="Layer_1" xmlns="http://www.w3.org/2000/svg" xmlns:xlink="http://www.w3.org/1999/xlink" x="0px" y="0px"
	 width="30.047px" height="30.048px" viewBox="0 0 30.047 30.048" enable-background="new 0 0 30.047 30.048" xml:space="preserve">
<g>
	<path fill="#FFFFFF" d="M17.844,15.028h-1.846c0,2.948,0,6.579,0,6.579h-2.733c0,0,0-3.594,0-6.579h-1.3v-2.324h1.3V11.2
		c0-1.077,0.511-2.76,2.76-2.76l2.023,0.008v2.257c0,0-1.231,0-1.47,0s-0.58,0.119-0.58,0.633v1.366h2.085L17.844,15.028z"/>
	<path fill="#FFFFFF" d="M15.024,30.048C6.74,30.048,0,23.308,0,15.023S6.74,0,15.024,0c8.284,0,15.023,6.739,15.023,15.023
		S23.308,30.048,15.024,30.048z M15.024,1.963c-7.202,0-13.061,5.859-13.061,13.061c0,7.202,5.859,13.062,13.061,13.062
		s13.06-5.859,13.06-13.062C28.084,7.822,22.226,1.963,15.024,1.963z"/>
</g>
</svg>
