<?xml version="1.0" encoding="utf-8"?>
<!-- Generator: Adobe Illustrator 16.0.3, SVG Export Plug-In . SVG Version: 6.00 Build 0)  -->
<!DOCTYPE svg PUBLIC "-//W3C//DTD SVG 1.1//EN" "http://www.w3.org/Graphics/SVG/1.1/DTD/svg11.dtd">
<svg version="1.1" id="Layer_1" xmlns="http://www.w3.org/2000/svg" xmlns:xlink="http://www.w3.org/1999/xlink" x="0px" y="0px"
	 width="134.899px" height="71.27px" viewBox="0 0 134.899 71.27" enable-background="new 0 0 134.899 71.27" xml:space="preserve">
<path fill="#FFFFFF" d="M61.394,13.09h-4.066V3.581h-2.62V0h9.306v3.581h-2.62V13.09z M58.224,12.193h2.273V2.685h2.62V0.896h-7.513
	v1.788h2.62V12.193z"/>
<path fill="#FFFFFF" d="M77.695,13.09h-4.065V8.093h-3.681v4.997h-4.066V0h4.066v4.706h3.681V0h4.065V13.09z M74.526,12.193h2.273
	V0.896h-2.273v4.706h-5.473V0.896H66.78v11.297h2.273V7.196h5.473V12.193z"/>
<path fill="#FFFFFF" d="M87.569,13.09h-7.833V0h7.833v3.581h-3.768v1.142h3.574v3.581h-3.574V9.51h3.768V13.09z M80.631,12.193
	h6.041v-1.788h-3.768V7.407h3.574V5.619h-3.574V2.685h3.768V0.896h-6.041V12.193z"/>
<path fill="#FFFFFF" d="M9.331,20.187c-0.647-0.873-1.698-1.343-2.781-1.343c-1.941,0-3.251,1.488-3.251,3.38
	c0,1.925,1.326,3.315,3.299,3.315c1.035,0,2.07-0.501,2.733-1.294v3.801c-1.051,0.323-1.811,0.565-2.797,0.565
	c-1.699,0-3.316-0.646-4.577-1.795C0.615,25.604,0,24.019,0,22.207c0-1.666,0.631-3.266,1.795-4.463
	c1.197-1.229,2.927-1.973,4.641-1.973c1.019,0,1.957,0.227,2.895,0.614V20.187z"/>
<path fill="#FFFFFF" d="M25.778,25.727c0,3.946-2.83,6.728-6.743,6.728c-3.914,0-6.744-2.781-6.744-6.728
	c0-3.688,3.235-6.274,6.744-6.274C22.544,19.452,25.778,22.039,25.778,25.727 M15.59,25.742c0,2.103,1.552,3.64,3.445,3.64
	c1.892,0,3.444-1.537,3.444-3.64c0-1.682-1.552-3.218-3.444-3.218C17.142,22.524,15.59,24.061,15.59,25.742"/>
<polygon fill="#FFFFFF" points="32.038,25.604 35.838,25.604 35.838,28.288 28.869,28.288 28.869,16.095 32.038,16.095 "/>
<path fill="#FFFFFF" d="M52.116,25.727c0,3.946-2.83,6.728-6.743,6.728c-3.914,0-6.744-2.781-6.744-6.728
	c0-3.688,3.235-6.274,6.744-6.274C48.882,19.452,52.116,22.039,52.116,25.727 M41.928,25.742c0,2.103,1.553,3.64,3.445,3.64
	c1.892,0,3.444-1.537,3.444-3.64c0-1.682-1.552-3.218-3.444-3.218C43.481,22.524,41.928,24.061,41.928,25.742"/>
<path fill="#FFFFFF" d="M65.346,32.05H61.4l-2.992-4.689h-0.032v4.689h-3.169V19.856h4.737c2.411,0,4.238,1.148,4.238,3.752
	c0,1.682-0.938,3.137-2.669,3.444L65.346,32.05z M58.376,25.322h0.307c1.035,0,2.2-0.194,2.2-1.521s-1.165-1.52-2.2-1.52h-0.307
	V25.322z"/>
<path fill="#FFFFFF" d="M46.31,52.31c-4.167,0-7.191-3.018-7.191-7.176c0-3.707,3.226-6.723,7.191-6.723
	c3.966,0,7.192,3.016,7.192,6.723C53.501,49.292,50.477,52.31,46.31,52.31 M46.31,39.308c-3.027,0-6.295,2.228-6.295,5.826
	c0,3.697,2.588,6.279,6.295,6.279s6.295-2.582,6.295-6.279C52.604,41.535,49.337,39.308,46.31,39.308 M46.31,49.237
	c-2.183,0-3.893-1.794-3.893-4.087c0-1.987,1.783-3.665,3.893-3.665s3.893,1.678,3.893,3.665
	C50.203,47.443,48.493,49.237,46.31,49.237 M46.31,42.381c-1.596,0-2.997,1.294-2.997,2.77c0,1.789,1.317,3.19,2.997,3.19
	s2.996-1.401,2.996-3.19C49.306,43.675,47.906,42.381,46.31,42.381"/>
<path fill="#FFFFFF" d="M59.76,51.904h-4.065V38.815h7.898v3.581H59.76v1.142h3.478v3.58H59.76V51.904z M56.591,51.009h2.273v-4.787
	h3.477v-1.788h-3.477V41.5h3.833v-1.788h-6.106V51.009z"/>
<path fill="#FFFFFF" d="M62.013,61.809C61.431,61.323,60.687,61,59.911,61c-0.582,0-1.359,0.34-1.359,1.02
	c0,0.711,0.857,0.986,1.407,1.164l0.809,0.242c1.698,0.501,3.008,1.358,3.008,3.331c0,1.214-0.291,2.459-1.262,3.283
	c-0.954,0.809-2.231,1.148-3.46,1.148c-1.537,0-3.041-0.518-4.286-1.391l1.359-2.556c0.792,0.695,1.73,1.262,2.813,1.262
	c0.744,0,1.537-0.372,1.537-1.229c0-0.889-1.246-1.196-1.925-1.391c-1.989-0.565-3.299-1.083-3.299-3.444
	c0-2.475,1.763-4.091,4.205-4.091c1.229,0,2.733,0.388,3.817,1.002L62.013,61.809z"/>
<path fill="#FFFFFF" d="M79.77,64.542c0,3.945-2.83,6.728-6.743,6.728c-3.914,0-6.744-2.782-6.744-6.728
	c0-3.688,3.235-6.274,6.744-6.274S79.77,60.854,79.77,64.542 M69.583,64.559c0,2.102,1.553,3.638,3.444,3.638
	s3.444-1.536,3.444-3.638c0-1.683-1.553-3.219-3.444-3.219S69.583,62.876,69.583,64.559"/>
<path fill="#FFFFFF" d="M93.437,58.672v6.856c0,1.568-0.063,3.121-1.278,4.302c-1.018,1.003-2.619,1.358-4.043,1.358
	c-1.423,0-3.023-0.355-4.041-1.358c-1.214-1.181-1.279-2.733-1.279-4.302v-6.856h3.17v6.42c0,1.585,0.113,3.315,2.15,3.315
	c2.038,0,2.152-1.73,2.152-3.315v-6.42H93.437z"/>
<polygon fill="#FFFFFF" points="100.822,58.672 103.991,58.672 109.797,66.127 109.83,66.127 109.83,58.672 112.999,58.672 
	112.999,70.865 109.83,70.865 104.024,63.394 103.991,63.394 103.991,70.865 100.822,70.865 "/>
<path fill="#FFFFFF" d="M124.21,58.672h4.495c3.396,0,6.193,2.668,6.193,6.097c0,3.428-2.813,6.097-6.193,6.097h-4.495V58.672z
	 M127.379,68.181h0.712c1.892,0,3.509-1.035,3.509-3.412c0-2.184-1.438-3.413-3.477-3.413h-0.744V68.181z"/>
</svg>
