<?xml version="1.0" encoding="utf-8"?>
<!-- Generator: Adobe Illustrator 16.0.3, SVG Export Plug-In . SVG Version: 6.00 Build 0)  -->
<!DOCTYPE svg PUBLIC "-//W3C//DTD SVG 1.1//EN" "http://www.w3.org/Graphics/SVG/1.1/DTD/svg11.dtd">
<svg version="1.1" id="Layer_1" xmlns="http://www.w3.org/2000/svg" xmlns:xlink="http://www.w3.org/1999/xlink" x="0px" y="0px"
	 width="146.049px" height="51.988px" viewBox="0 0 146.049 51.988" enable-background="new 0 0 146.049 51.988"
	 xml:space="preserve">
<polygon fill="#FFFFFF" points="49.219,21.73 42.85,21.73 42.85,8.801 38.382,8.801 38.382,25.339 49.219,25.339 "/>
<path fill="#FFFFFF" d="M85.602,25.357l-4.819-7.206c1.87-1.048,2.806-2.53,2.806-4.445c0-3.258-2.248-4.887-6.742-4.887h-5.418
	v16.538h4.468v-6.019h1.131l3.507,6.019H85.602z M76.733,16.229h-1.087v-4.278h1.132c2.105,0,2.547,1.064,2.547,1.958
	C79.325,14.968,78.875,16.229,76.733,16.229"/>
<path fill="#FFFFFF" d="M25.812,17.398c4.691,0,8.494-3.895,8.494-8.699C34.307,3.896,30.503,0,25.812,0s-8.494,3.896-8.494,8.699
	C17.318,13.504,21.122,17.398,25.812,17.398 M25.812,4.016c2.525,0,4.573,2.098,4.573,4.684c0,2.587-2.048,4.684-4.573,4.684
	s-4.573-2.097-4.573-4.684C21.24,6.113,23.288,4.016,25.812,4.016"/>
<path fill="#FFFFFF" d="M67.48,8.903c0-4.805-3.803-8.699-8.494-8.699s-8.494,3.895-8.494,8.699c0,4.804,3.803,8.698,8.494,8.698
	S67.48,13.707,67.48,8.903 M58.986,13.587c-2.525,0-4.573-2.098-4.573-4.684c0-2.588,2.048-4.684,4.573-4.684
	c2.526,0,4.573,2.096,4.573,4.684C63.559,11.489,61.512,13.587,58.986,13.587"/>
<path fill="#FFFFFF" d="M9.031,17.602c1.467,0,3.034-0.381,4.238-1.052l0.042-4.084c0.001-0.066-0.069-0.109-0.124-0.071
	c-0.414,0.286-1.833,1.148-3.877,1.148c-2.452,0-4.626-2.128-4.626-4.64s2.267-4.641,4.719-4.641c2.122,0,3.306,1.155,3.663,1.569
	c0.046,0.054,0.131,0.022,0.139-0.049l0.497-4.176c-1.358-0.943-2.905-1.402-4.671-1.402c-4.691,0-8.494,3.894-8.494,8.698
	C0.537,13.707,4.34,17.602,9.031,17.602"/>
<path fill="#FFFFFF" d="M26.526,29.416c-2.744,0-4.977,2.28-4.977,5.084c0,2.805,2.233,5.084,4.977,5.084s4.977-2.279,4.977-5.084
	C31.503,31.696,29.271,29.416,26.526,29.416 M26.526,38.616c-2.209,0-4.006-1.847-4.006-4.116s1.797-4.116,4.006-4.116
	s4.006,1.847,4.006,4.116S28.735,38.616,26.526,38.616"/>
<path fill="#FFFFFF" d="M26.526,25.265c-4.979,0-9.031,4.143-9.031,9.235s4.052,9.236,9.031,9.236c4.98,0,9.031-4.144,9.031-9.236
	S31.506,25.265,26.526,25.265 M26.526,42.662c-4.387,0-7.957-3.661-7.957-8.162s3.57-8.162,7.957-8.162
	c4.388,0,7.957,3.661,7.957,8.162S30.915,42.662,26.526,42.662"/>
<path fill="#FFFFFF" d="M9.403,30.396c1.67,0,3.056,0.841,3.832,1.679c0.069,0.075,0.143,0.071,0.168,0.063
	c0.024-0.007,0.106-0.034,0.118-0.136l0.751-5.056l-0.264-0.184c-1.431-0.995-3.106-1.499-4.977-1.499C4.051,25.265,0,29.407,0,34.5
	s4.051,9.236,9.031,9.236c1.581,0,3.221-0.408,4.499-1.12l0.273-0.152l-0.01-5.131c0.001-0.062-0.031-0.116-0.086-0.144
	s-0.119-0.021-0.17,0.017c-0.456,0.354-2.051,1.398-4.227,1.398c-2.179,0-4.089-1.919-4.089-4.104
	C5.221,32.353,7.214,30.396,9.403,30.396 M4.147,34.5c0,2.806,2.364,5.177,5.163,5.177c1.078,0,2.212-0.276,3.368-0.822l0.187-0.088
	v2.986l-0.2,0.102c-1.066,0.514-2.391,0.808-3.634,0.808c-4.388,0-7.957-3.661-7.957-8.162s3.569-8.162,7.957-8.162
	c1.529,0,2.847,0.355,4.031,1.088l0.162,0.093l-0.346,3.004l-0.179-0.126c-0.568-0.401-1.752-1.073-3.296-1.073
	C6.603,29.323,4.147,31.742,4.147,34.5"/>
<path fill="#FFFFFF" d="M108.133,32.516c-0.36-0.164-0.764-0.306-1.153-0.441c-0.185-0.064-0.375-0.124-0.565-0.182
	c-0.555-0.171-1.078-0.333-1.44-0.622c-0.114-0.091-0.476-0.422-0.32-0.844c0.138-0.375,0.787-0.579,1.581-0.52
	c1.068,0.094,2.25,0.554,3.697,1.218l0.247,0.113c0.069,0.031,0.149,0.035,0.22,0.005c0.071-0.028,0.127-0.084,0.155-0.155
	l1.659-4.183l-0.471-0.209c-1.789-0.796-3.793-1.235-5.642-1.235c-2.082,0-3.808,0.481-4.991,1.391
	c-1.181,0.908-1.863,2.361-1.872,3.986c-0.008,1.455,0.65,2.936,1.759,3.961c0.948,0.878,2.846,1.614,3.894,1.975
	c0.776,0.268,1.769,0.784,1.909,1.273c0.059,0.2,0.01,0.494-0.178,0.652c-0.229,0.193-0.588,0.442-2.619,0.128
	c-1.924-0.297-3.742-1.148-4.616-1.558c-0.078-0.037-0.166-0.031-0.239,0.016c-0.072,0.046-0.115,0.123-0.115,0.211v4.803
	l0.307,0.146c0.961,0.459,3.35,1.094,5.332,1.094c1.91,0,3.095-0.199,4.228-0.71c1.071-0.481,1.906-1.171,2.481-2.051
	c0.576-0.88,0.867-1.897,0.867-3.025c0-1.202-0.299-2.157-0.939-3.007C110.691,33.929,109.653,33.199,108.133,32.516 M110.48,40.19
	c-0.468,0.715-1.13,1.258-2.022,1.659c-0.842,0.379-1.769,0.614-3.787,0.614c-1.582,0-3.582-0.391-4.6-0.768l-0.08-0.03V38.59
	l0.165,0.059c1.261,0.444,2.97,0.971,3.649,1.072l0.122,0.019c0.94,0.143,3.147,0.479,3.757-0.977
	c0.176-0.418,0.178-0.844,0.007-1.227c-0.407-0.91-1.663-1.346-2.414-1.605l-0.114-0.04c-1.127-0.396-2.627-1.13-3.437-1.88
	c-0.892-0.824-1.42-2.009-1.414-3.168c0.006-1.31,0.522-2.425,1.453-3.14c0.76-0.584,2.121-1.28,4.287-1.28
	c1.405,0,3.131,0.356,4.733,0.978l0.111,0.043l-0.91,2.645l-0.121-0.049c-1.66-0.665-2.972-1.002-3.9-1.002
	c-0.41,0-1.658,0-2.137,0.941c-0.381,0.75-0.012,1.596,0.549,2.043c0.627,0.499,1.449,0.786,2.244,1.064l0.045,0.016
	c0.369,0.13,0.719,0.253,1.022,0.393c1.335,0.6,2.265,1.238,2.761,1.897c0.5,0.664,0.723,1.392,0.723,2.36
	C111.172,38.679,110.946,39.477,110.48,40.19"/>
<path fill="#FFFFFF" d="M115.502,36.849h10.894v-4.717h-5.351v-1.768H126v-4.659h-4.955v-1.809h5.351v-4.66h-10.894V36.849z
	 M116.577,20.311h8.746v2.512h-5.351v3.956h4.954v2.512h-4.954v3.916h5.351v2.568h-8.746V20.311z"/>
<path fill="#FFFFFF" d="M136.22,29.076h-1.419v4.853h1.374c2.504,0,2.878-1.634,2.878-2.607
	C139.053,30.482,138.686,29.076,136.22,29.076 M136.175,32.854h-0.3V30.15h0.345c1.761,0,1.761,0.791,1.761,1.171
	C137.981,32.079,137.765,32.854,136.175,32.854"/>
<path fill="#FFFFFF" d="M140.983,35.732l0.104-0.07c1.646-1.119,2.48-2.648,2.48-4.544c0-4.482-3.958-5.425-7.279-5.425h-5.955
	v17.613h5.543v-6.019h0.285l0.036,0.062l3.47,5.956h6.383L140.983,35.732z M140.25,42.173l-3.472-5.678h-1.978v5.737h-3.395V26.768
	h4.881c2.664,0,6.205,0.451,6.205,4.351c0,1.926-0.688,3.172-2.234,4.038l-0.51,0.285l4.283,6.791h-3.746L140.25,42.173z"/>
<path fill="#FFFFFF" d="M68.607,37.125h-1.69V42h1.351c0.81,0,1.473-0.24,1.971-0.714c0.504-0.48,0.76-1.137,0.76-1.95
	C71,37.931,70.127,37.125,68.607,37.125 M69.585,40.6c-0.24,0.228-0.542,0.368-0.917,0.424c-0.125,0.019-0.259,0.027-0.4,0.027
	h-0.403v-2.977h0.742c0.998,0,1.443,0.389,1.443,1.262C70.05,39.887,69.898,40.3,69.585,40.6"/>
<path fill="#FFFFFF" d="M68.71,33.517h-6.261v17.612h5.542v-5.486h0.719c2.135,0,3.821-0.557,5.008-1.653
	c1.199-1.107,1.807-2.681,1.807-4.676c0-1.836-0.593-3.281-1.757-4.296C72.623,34.021,70.922,33.517,68.71,33.517 M72.989,43.201
	c-0.815,0.752-2.218,1.648-4.279,1.648h-1.793v5.206h-3.394V34.591h5.187c1.946,0,3.41,0.416,4.353,1.235
	c0.934,0.814,1.388,1.955,1.388,3.487C74.451,41.02,73.973,42.291,72.989,43.201"/>
<path fill="#FFFFFF" d="M86.981,33.518c-4.979,0-9.031,4.142-9.031,9.234s4.052,9.236,9.031,9.236c4.979,0,9.031-4.144,9.031-9.236
	S91.959,33.518,86.981,33.518 M86.981,50.914c-4.388,0-7.957-3.661-7.957-8.162c0-4.5,3.569-8.161,7.957-8.161
	s7.957,3.661,7.957,8.161C94.938,47.253,91.369,50.914,86.981,50.914"/>
<path fill="#FFFFFF" d="M48.792,43.983L45.8,33.517h-6.985v17.612h4.707l-0.028-9.128l0.003-0.96h0.118l0.221,0.932l2.592,9.156
	h4.511l2.606-9.163l0.223-0.925l0.106-0.005l0.019,0.983l-0.172,9.109h5.002V33.517h-6.998L48.792,43.983z M57.649,34.591v15.464
	h-3.032v-11l-0.928-0.019L50.4,50.055h-3.434l-0.025-0.092c-0.732-2.658-1.703-5.87-2.412-8.216c-0.401-1.328-0.7-2.315-0.819-2.753
	l-0.936,0.014v11.047h-2.886V34.591h5.381l3.479,11.542h0.108l3.404-11.542H57.649z"/>
<path fill="#FFFFFF" d="M86.981,37.669c-2.744,0-4.978,2.28-4.978,5.084c0,2.803,2.233,5.083,4.978,5.083s4.977-2.28,4.977-5.083
	C91.958,39.949,89.725,37.669,86.981,37.669 M86.981,46.869c-2.209,0-4.006-1.847-4.006-4.116c0-2.271,1.797-4.117,4.006-4.117
	s4.006,1.847,4.006,4.117C90.987,45.022,89.19,46.869,86.981,46.869"/>
</svg>
