<?xml version="1.0" encoding="utf-8"?>
<!-- Generator: Adobe Illustrator 16.0.3, SVG Export Plug-In . SVG Version: 6.00 Build 0)  -->
<!DOCTYPE svg PUBLIC "-//W3C//DTD SVG 1.1//EN" "http://www.w3.org/Graphics/SVG/1.1/DTD/svg11.dtd">
<svg version="1.1" id="Layer_1" xmlns="http://www.w3.org/2000/svg" xmlns:xlink="http://www.w3.org/1999/xlink" x="0px" y="0px"
	 width="155.416px" height="71.889px" viewBox="0 0 155.416 71.889" enable-background="new 0 0 155.416 71.889"
	 xml:space="preserve">
<rect x="19.478" y="63.886" transform="matrix(-0.866 0.5001 -0.5001 -0.866 76.2961 114.0907)" fill="#FFFFFF" width="6.765" height="6.765"/>
<path fill="#FFFFFF" d="M131.383,22.977c-1.033-0.915-0.894-2.212-0.239-2.969c0.624-0.72,1.779-1.008,2.78-0.16
	c0.357,0.302,0.712,0.406,1.003,0.293c0.228-0.089,0.395-0.312,0.427-0.568c0.04-0.331-0.144-0.659-0.517-0.923
	c-0.8-0.565-1.22-1.415-1.122-2.274c0.079-0.694,0.486-1.256,1.09-1.504c0.425-0.174,1.308-0.329,2.447,0.592l-0.787,0.974
	c-0.459-0.371-0.903-0.523-1.186-0.407c-0.175,0.071-0.294,0.253-0.32,0.487c-0.045,0.397,0.179,0.812,0.6,1.109
	c0.756,0.535,1.135,1.299,1.037,2.097c-0.086,0.717-0.551,1.324-1.212,1.583c-0.727,0.284-1.555,0.102-2.27-0.504
	c-0.536-0.454-0.92-0.096-1.023,0.025c-0.201,0.232-0.401,0.748,0.123,1.212L131.383,22.977z"/>
<path fill="#FFFFFF" d="M0,0l1.729,10.389l8.133-6.691L0,0z M1.583,1.924l5.821,2.183l-4.8,3.95L1.583,1.924z"/>
<path fill="#FFFFFF" d="M155.416,59.645c0,1.918-1.555,3.473-3.473,3.473s-3.474-1.555-3.474-3.473s1.556-3.474,3.474-3.474
	S155.416,57.727,155.416,59.645"/>
<polygon fill="#FFFFFF" points="54.876,33.143 49.135,33.143 49.135,21.488 45.107,21.488 45.107,36.396 54.876,36.396 "/>
<path fill="#FFFFFF" d="M87.674,36.412l-4.344-6.496c1.685-0.944,2.528-2.28,2.528-4.007c0-2.937-2.025-4.405-6.078-4.405h-4.884
	v14.908h4.028v-5.425h1.019l3.161,5.425H87.674z M79.679,28.184h-0.979v-3.856h1.021c1.896,0,2.295,0.959,2.295,1.765
	C82.015,27.047,81.609,28.184,79.679,28.184"/>
<path fill="#FFFFFF" d="M33.777,29.237c4.229,0,7.657-3.51,7.657-7.841s-3.428-7.842-7.657-7.842s-7.657,3.511-7.657,7.842
	S29.548,29.237,33.777,29.237 M33.777,17.174c2.276,0,4.122,1.891,4.122,4.222c0,2.332-1.846,4.222-4.122,4.222
	c-2.277,0-4.123-1.89-4.123-4.222C29.654,19.065,31.5,17.174,33.777,17.174"/>
<path fill="#FFFFFF" d="M71.337,21.58c0-4.331-3.427-7.841-7.656-7.841s-7.657,3.51-7.657,7.841s3.428,7.842,7.657,7.842
	S71.337,25.911,71.337,21.58 M63.681,25.801c-2.277,0-4.123-1.89-4.123-4.222s1.846-4.222,4.123-4.222
	c2.276,0,4.122,1.89,4.122,4.222S65.957,25.801,63.681,25.801"/>
<path fill="#FFFFFF" d="M18.649,29.421c1.322,0,2.734-0.343,3.82-0.948l0.037-3.681c0.001-0.06-0.062-0.099-0.111-0.065
	c-0.373,0.258-1.652,1.035-3.495,1.035c-2.21,0-4.17-1.919-4.17-4.182c0-2.264,2.044-4.183,4.254-4.183
	c1.913,0,2.98,1.041,3.302,1.414c0.042,0.048,0.117,0.02,0.125-0.044l0.448-3.764c-1.225-0.851-2.619-1.265-4.21-1.265
	c-4.229,0-7.657,3.511-7.657,7.842C10.992,25.91,14.42,29.421,18.649,29.421"/>
<path fill="#FFFFFF" d="M34.42,40.071c-2.474,0-4.486,2.056-4.486,4.583s2.012,4.583,4.486,4.583s4.487-2.056,4.487-4.583
	S36.895,40.071,34.42,40.071 M34.42,48.364c-1.991,0-3.611-1.665-3.611-3.71c0-2.046,1.62-3.711,3.611-3.711
	s3.611,1.665,3.611,3.711C38.031,46.699,36.412,48.364,34.42,48.364"/>
<path fill="#FFFFFF" d="M34.42,36.329c-4.489,0-8.141,3.733-8.141,8.325c0,4.591,3.652,8.325,8.141,8.325
	c4.489,0,8.141-3.734,8.141-8.325C42.562,40.062,38.909,36.329,34.42,36.329 M34.42,52.012c-3.955,0-7.172-3.3-7.172-7.357
	s3.217-7.357,7.172-7.357s7.173,3.3,7.173,7.357S38.375,52.012,34.42,52.012"/>
<path fill="#FFFFFF" d="M18.984,40.955c1.506,0,2.755,0.758,3.454,1.513c0.062,0.067,0.129,0.063,0.152,0.059
	c0.022-0.007,0.095-0.032,0.106-0.123l0.678-4.558l-0.238-0.166c-1.29-0.896-2.8-1.351-4.487-1.351
	c-4.489,0-8.141,3.734-8.141,8.325s3.652,8.326,8.141,8.326c1.425,0,2.903-0.368,4.055-1.011l0.246-0.137l-0.008-4.625
	c0.001-0.056-0.029-0.104-0.078-0.13c-0.05-0.024-0.107-0.02-0.154,0.015c-0.411,0.319-1.848,1.261-3.81,1.261
	c-1.964,0-3.686-1.729-3.686-3.699C15.214,42.718,17.012,40.955,18.984,40.955 M14.247,44.654c0,2.528,2.131,4.667,4.654,4.667
	c0.972,0,1.994-0.25,3.036-0.742l0.169-0.079v2.692l-0.18,0.092c-0.962,0.463-2.156,0.728-3.276,0.728
	c-3.956,0-7.173-3.3-7.173-7.357s3.217-7.357,7.173-7.357c1.378,0,2.566,0.32,3.634,0.98l0.146,0.084l-0.312,2.708l-0.162-0.114
	c-0.512-0.362-1.579-0.968-2.971-0.968C16.46,39.987,14.247,42.168,14.247,44.654"/>
<path fill="#FFFFFF" d="M107.984,42.866c-0.324-0.148-0.688-0.276-1.04-0.398c-0.166-0.059-0.338-0.111-0.509-0.164
	c-0.5-0.153-0.972-0.3-1.299-0.561c-0.103-0.082-0.43-0.38-0.289-0.761c0.125-0.339,0.71-0.522,1.426-0.469
	c0.963,0.084,2.027,0.499,3.332,1.099l0.224,0.102c0.062,0.028,0.134,0.031,0.198,0.004c0.063-0.024,0.113-0.076,0.14-0.14
	l1.495-3.77l-0.424-0.189c-1.613-0.717-3.419-1.112-5.086-1.112c-1.876,0-3.433,0.433-4.498,1.253
	c-1.066,0.818-1.681,2.128-1.688,3.593c-0.007,1.312,0.586,2.646,1.585,3.571c0.855,0.791,2.566,1.455,3.51,1.779
	c0.7,0.242,1.596,0.707,1.723,1.147c0.052,0.182,0.007,0.446-0.162,0.589c-0.206,0.175-0.53,0.398-2.361,0.115
	c-1.733-0.268-3.373-1.036-4.161-1.403c-0.069-0.034-0.148-0.029-0.215,0.014c-0.065,0.041-0.104,0.111-0.104,0.189v4.329
	l0.275,0.133c0.867,0.412,3.021,0.985,4.808,0.985c1.721,0,2.79-0.18,3.811-0.641c0.966-0.435,1.718-1.055,2.236-1.849
	c0.519-0.793,0.782-1.711,0.782-2.727c0-1.084-0.27-1.945-0.847-2.711C110.29,44.139,109.355,43.482,107.984,42.866 M110.1,49.784
	c-0.422,0.644-1.019,1.134-1.822,1.496c-0.759,0.341-1.595,0.553-3.414,0.553c-1.426,0-3.229-0.352-4.146-0.692l-0.073-0.026v-2.773
	l0.15,0.053c1.136,0.4,2.675,0.875,3.289,0.967l0.109,0.017c0.848,0.129,2.837,0.431,3.387-0.88c0.159-0.377,0.161-0.76,0.007-1.106
	c-0.367-0.819-1.5-1.213-2.176-1.446l-0.104-0.036c-1.016-0.357-2.367-1.02-3.098-1.695c-0.803-0.743-1.28-1.811-1.275-2.855
	c0.008-1.181,0.473-2.186,1.312-2.83c0.685-0.526,1.912-1.154,3.864-1.154c1.267,0,2.822,0.32,4.267,0.881l0.101,0.039l-0.819,2.384
	l-0.11-0.044c-1.496-0.599-2.678-0.903-3.516-0.903c-0.37,0-1.494,0-1.926,0.849c-0.344,0.676-0.011,1.438,0.495,1.842
	c0.564,0.45,1.306,0.709,2.021,0.96l0.041,0.013c0.333,0.118,0.648,0.229,0.922,0.354c1.204,0.541,2.04,1.117,2.489,1.711
	c0.45,0.598,0.651,1.254,0.651,2.128C110.725,48.421,110.521,49.14,110.1,49.784"/>
<path fill="#FFFFFF" d="M114.628,46.771h9.819V42.52h-4.823v-1.594h4.467v-4.199h-4.467v-1.631h4.823v-4.2h-9.819V46.771z
	 M115.597,31.863h7.883v2.264h-4.823v3.566h4.466v2.265h-4.466v3.53h4.823v2.314h-7.883V31.863z"/>
<path fill="#FFFFFF" d="M133.304,39.765h-1.279v4.374h1.238c2.258,0,2.595-1.472,2.595-2.35
	C135.857,41.032,135.525,39.765,133.304,39.765 M133.263,43.171h-0.271v-2.438h0.312c1.586,0,1.586,0.713,1.586,1.057
	C134.89,42.472,134.696,43.171,133.263,43.171"/>
<path fill="#FFFFFF" d="M137.597,45.765l0.093-0.063c1.484-1.009,2.236-2.387,2.236-4.096c0-4.041-3.567-4.889-6.561-4.889h-5.368
	v15.876h4.995v-5.425h0.257l0.033,0.056l3.129,5.369h5.752L137.597,45.765z M136.936,51.57l-3.129-5.118h-1.782v5.173h-3.061V37.684
	h4.401c2.4,0,5.593,0.406,5.593,3.922c0,1.736-0.621,2.859-2.014,3.64l-0.46,0.258l3.86,6.122h-3.376L136.936,51.57z"/>
<path fill="#FFFFFF" d="M72.354,47.021h-1.523v4.395h1.218c0.729,0,1.328-0.217,1.777-0.644c0.454-0.433,0.685-1.025,0.685-1.758
	C74.511,47.746,73.725,47.021,72.354,47.021 M73.236,50.152c-0.217,0.205-0.489,0.332-0.829,0.381
	c-0.112,0.018-0.232,0.026-0.359,0.026h-0.363v-2.683h0.668c0.9,0,1.301,0.35,1.301,1.137C73.655,49.51,73.518,49.882,73.236,50.152
	"/>
<path fill="#FFFFFF" d="M72.447,43.768h-5.644v15.876h4.996v-4.944h0.648c1.925,0,3.444-0.503,4.514-1.491
	c1.081-0.998,1.629-2.416,1.629-4.214c0-1.656-0.533-2.958-1.584-3.873C75.974,44.223,74.439,43.768,72.447,43.768 M76.304,52.498
	c-0.734,0.678-2,1.485-3.857,1.485h-1.616v4.692h-3.06v-13.94h4.676c1.752,0,3.073,0.375,3.923,1.114
	c0.843,0.734,1.252,1.762,1.252,3.145C77.622,50.531,77.19,51.678,76.304,52.498"/>
<path fill="#FFFFFF" d="M88.916,43.768c-4.488,0-8.141,3.734-8.141,8.325s3.652,8.326,8.141,8.326c4.489,0,8.142-3.735,8.142-8.326
	S93.405,43.768,88.916,43.768 M88.916,59.45c-3.954,0-7.172-3.3-7.172-7.357c0-4.057,3.218-7.356,7.172-7.356
	c3.955,0,7.174,3.3,7.174,7.356C96.09,56.15,92.871,59.45,88.916,59.45"/>
<path fill="#FFFFFF" d="M54.492,53.203l-2.697-9.436h-6.297v15.877h4.244l-0.026-8.229l0.003-0.866h0.106l0.2,0.84l2.336,8.255
	h4.067l2.349-8.261l0.2-0.834l0.096-0.004l0.017,0.886l-0.155,8.213h4.509V43.768h-6.308L54.492,53.203z M62.476,44.736v13.939
	h-2.733V48.76l-0.837-0.017l-2.964,9.933h-3.096l-0.023-0.083c-0.66-2.396-1.535-5.292-2.174-7.405
	c-0.362-1.198-0.631-2.088-0.738-2.482l-0.844,0.012v9.959h-2.601V44.736h4.85l3.136,10.403h0.097l3.069-10.403H62.476z"/>
<path fill="#FFFFFF" d="M88.916,47.511c-2.474,0-4.485,2.056-4.485,4.583c0,2.526,2.012,4.582,4.485,4.582
	c2.475,0,4.486-2.056,4.486-4.582C93.402,49.566,91.391,47.511,88.916,47.511 M88.916,55.804c-1.99,0-3.61-1.665-3.61-3.71
	c0-2.047,1.62-3.712,3.61-3.712c1.992,0,3.612,1.665,3.612,3.712C92.528,54.139,90.908,55.804,88.916,55.804"/>
</svg>
