<?xml version="1.0" encoding="utf-8"?>
<!-- Generator: Adobe Illustrator 16.0.3, SVG Export Plug-In . SVG Version: 6.00 Build 0)  -->
<!DOCTYPE svg PUBLIC "-//W3C//DTD SVG 1.1//EN" "http://www.w3.org/Graphics/SVG/1.1/DTD/svg11.dtd">
<svg version="1.1" xmlns="http://www.w3.org/2000/svg" xmlns:xlink="http://www.w3.org/1999/xlink" x="0px" y="0px"
	 width="175.748px" height="81.733px" viewBox="0 0 175.748 81.733" enable-background="new 0 0 175.748 81.733"
	 xml:space="preserve">
<g id="Layer_2" display="none">
	<rect x="-28.531" y="-59.188" display="inline" width="238.488" height="202.49"/>
</g>
<g id="Layer_1">
	<g>
		<path fill-rule="evenodd" clip-rule="evenodd" fill="#FFFFFF" d="M175.748,33.264c0,2.595-2.407,4.707-5.368,4.707
			c-1.903,0-3.047-0.753-3.733-1.206c-0.289-0.188-0.515-0.337-0.661-0.337c-0.082,0-0.354,0.147-0.807,1.428h-0.571v-6.031h0.631
			c0.998,3.507,2.639,5.376,5.063,5.376c1.542,0,2.85-1.072,2.85-2.338c0-1.169-0.709-1.732-3.155-2.517
			c-1.775-0.584-2.172-0.72-2.85-1.058c-1.251-0.667-1.968-1.761-1.968-3.005c0-2.38,2.15-4.318,4.799-4.318
			c1.524,0,2.394,0.485,2.971,0.803c0.27,0.151,0.486,0.274,0.663,0.274c0.225,0,0.426-0.393,0.613-0.889l0.576-0.004v4.956h-0.636
			c-0.006-0.04-0.636-4.375-4.247-4.375c-1.376,0-2.501,0.805-2.501,1.792s0.541,1.338,3.594,2.352
			c1.97,0.649,2.308,0.785,2.989,1.2C175.079,30.708,175.748,31.93,175.748,33.264L175.748,33.264z M54.701,3
			c0.634-0.895,1.761-1.846,3.005-1.846c0,0,0.682,0,0.872,0c0,0.244,0,15.081,0,15.081c0,1.837-0.301,1.993-2.394,2.235
			l-0.11,0.011l0.007,0.644h8.644v-0.64l-0.109-0.012c-2.076-0.242-2.407-0.41-2.407-2.238c0,0,0-14.837,0-15.081
			c0.19,0,0.897,0,0.897,0c1.251,0,2.379,0.951,3.016,1.846c0.786,1.092,1.281,2.55,1.598,4.636
			c0.002,0.007,0.628,0.002,0.628,0.002v-7.25H52.472v7.25l0.642-0.002C53.431,5.552,53.914,4.094,54.701,3L54.701,3z
			 M86.788,12.551c0-3.806,3.094-7.018,6.756-7.018c3.435,0,5.929,2.508,5.929,5.97v0.628c0,0-8.714,0-8.949,0
			c-0.004,0.301-0.024,1.104-0.024,1.104c0,3.833,1.022,5.395,3.531,5.395c1.736,0,3.172-0.719,3.931-1.97
			c0.389-0.672,0.5-0.939,0.719-2.004l0.03-0.151h0.794l-0.031,0.216c-0.361,2.934-2.501,4.759-5.582,4.759
			C89.908,19.479,86.788,16.436,86.788,12.551L86.788,12.551z M90.593,11.396c0.245,0,3.219,0,3.219,0
			c2.174,0,2.174-0.058,2.174-1.487c0-2.413-0.822-3.637-2.441-3.637C91.575,6.271,90.771,7.672,90.593,11.396L90.593,11.396z
			 M31.28,32.988c-0.379,3.057-2.371,4.983-5.613,4.983c-3.982,0-7.106-3.045-7.106-6.936c0-3.802,3.093-7.013,6.751-7.013
			c3.442,0,5.937,2.511,5.937,5.966v0.63c0,0-8.72,0-8.953,0c-0.006,0.305-0.023,1.106-0.023,1.106c0,3.831,1.022,5.395,3.528,5.395
			c1.74,0,3.176-0.719,3.933-1.968c0.5-0.841,0.744-2.16,0.744-2.16S31.282,32.988,31.28,32.988L31.28,32.988z M22.367,29.881
			c0.241,0,3.218,0,3.218,0c2.173,0,2.173-0.053,2.173-1.485c0-2.413-0.822-3.637-2.445-3.637
			C23.348,24.759,22.545,26.158,22.367,29.881L22.367,29.881z M120.205,54.811c-0.381,3.059-2.37,4.981-5.616,4.981
			c-3.983,0-7.101-3.046-7.101-6.934c0-3.8,3.089-7.012,6.745-7.012c3.444,0,5.945,2.508,5.945,5.966v0.628c0,0-8.728,0-8.957,0
			c-0.007,0.307-0.02,1.11-0.02,1.11c0,3.829,1.02,5.393,3.522,5.393c1.739,0,3.173-0.719,3.938-1.97
			c0.492-0.841,0.737-2.158,0.737-2.158L120.205,54.811L120.205,54.811z M111.294,51.702c0.242,0,3.212,0,3.212,0
			c2.177,0,2.177-0.051,2.177-1.487c0-2.409-0.826-3.634-2.449-3.634C112.273,46.582,111.477,47.979,111.294,51.702L111.294,51.702z
			 M91.781,29.195h-0.125h-5.782v2.555h5.907V29.195L91.781,29.195z M94.684,31.489c4.814-12.503,4.862-12.537,4.904-12.563
			l0.029-0.025h2.123h0.084l5.928,14.956c0.872,2.164,1.854,2.943,3.172,3.093v0.661h-8.477l-0.005-0.661
			c1.856-0.257,2.02-0.7,2.02-1.236c0-0.389-0.113-0.793-0.474-1.717c-1.077-2.702-1.376-3.509-1.466-3.76
			c-0.167,0-6.154-0.011-6.32-0.011c-0.137,0.381-0.734,2.087-0.734,2.087c-0.45,1.295-0.63,1.939-0.646,2.575
			c-0.014,1.219,0.508,1.93,2.338,2.062v0.661h-7.112v-0.665c1.792-0.295,2.58-0.964,3.239-2.329
			C93.757,33.676,94.353,32.333,94.684,31.489L94.684,31.489z M96.509,29.387c0.321,0,5.307,0,5.638,0
			c-0.125-0.316-2.7-6.738-2.92-7.271c-0.192,0.518-1.636,4.395-1.636,4.395S96.621,29.086,96.509,29.387L96.509,29.387z
			 M42.706,36.34c0.144,0,0.372,0.149,0.661,0.339c0.682,0.448,1.828,1.199,3.731,1.199c2.958,0,5.37-2.108,5.37-4.703
			c0-1.334-0.67-2.557-1.75-3.191c-0.685-0.414-1.018-0.55-2.99-1.198c-3.053-1.014-3.59-1.364-3.59-2.354
			c0-0.985,1.124-1.788,2.499-1.788c3.534,0,4.237,4.327,4.244,4.372l0.636,0.004v-4.948l-0.571-0.004
			c-0.188,0.487-0.42,0.878-0.621,0.883c-0.169,0.008-0.386-0.121-0.658-0.272c-0.579-0.318-1.449-0.801-2.975-0.801
			c-2.646,0-4.801,1.936-4.801,4.318c0,1.248,0.719,2.338,1.975,3.002c0.663,0.338,1.067,0.474,2.85,1.058
			c2.445,0.784,3.153,1.348,3.153,2.516c0,1.269-1.308,2.34-2.854,2.34c-2.333,0-4.099-1.869-5.056-5.376h-0.638v6.031l0.569,0.004
			C42.315,36.499,42.656,36.34,42.706,36.34L42.706,36.34z M99.862,59.113c-2.338,0-4.109-1.871-5.084-5.378l-0.615,0.004v6.027
			l0.544-0.002c0.45-1.28,0.7-1.431,0.835-1.431c0.148,0,0.374,0.153,0.664,0.343c0.684,0.453,1.83,1.204,3.732,1.204
			c2.958,0,5.371-2.11,5.371-4.705c0-1.336-0.67-2.552-1.747-3.185l0,0v-0.008c-0.686-0.412-1.017-0.546-2.997-1.2
			c-3.057-1.014-3.587-1.365-3.587-2.345c0-0.993,1.123-1.792,2.494-1.792c3.588,0,4.232,4.327,4.237,4.368l0.648,0.007v-4.953
			h-0.56c-0.196,0.497-0.414,0.884-0.631,0.884c-0.177,0-0.389-0.119-0.663-0.277c-0.577-0.317-1.447-0.802-2.973-0.802
			c-2.646,0-4.795,1.941-4.795,4.322c0,1.244,0.715,2.338,1.969,3.001c0.679,0.343,1.111,0.491,2.852,1.06
			c2.447,0.781,3.152,1.347,3.152,2.516C102.71,58.042,101.406,59.113,99.862,59.113L99.862,59.113z M135.894,56.688L135.89,45.88
			c-1.24,0.118-3.885,0.291-6.042,0.291l0.001,0.648c2.252,0.157,2.574,0.197,2.574,2.213v2.779c0,3.879-1.716,6.802-3.986,6.802
			c-1.148,0-1.66-0.959-1.66-3.11l-0.569-9.63c-1.072,0.119-3.55,0.306-5.557,0.306v0.65c2.219,0.106,2.69,0.33,2.69,1.903v0.301
			l-0.028,5.723c0,2.023,0.203,2.867,0.909,3.754c0.621,0.802,1.76,1.282,3.052,1.282c1.444,0,2.792-0.56,3.794-1.572
			c0.569-0.583,0.903-1.102,1.384-2.175c0,0.868-0.003,3.65-0.003,3.65c0.026-0.003,2.374-0.184,2.997-0.186l2.965-0.079v-0.621
			C136.427,58.673,135.894,58.373,135.894,56.688L135.894,56.688z M56.131,74.748c0,3.724-3.321,6.985-7.104,6.985
			s-7.106-3.262-7.106-6.985c0-3.726,3.323-6.99,7.106-6.99S56.131,71.022,56.131,74.748L56.131,74.748z M52.312,74.748
			c0-4.437-0.955-6.252-3.285-6.252c-2.333,0-3.283,1.815-3.283,6.252c0,4.44,0.951,6.249,3.283,6.249
			C51.356,80.997,52.312,79.188,52.312,74.748L52.312,74.748z M68.294,30.985c0,3.716-3.317,6.986-7.099,6.986
			c-3.787,0-7.108-3.27-7.108-6.986c0-3.724,3.322-6.991,7.108-6.991C64.977,23.994,68.294,27.262,68.294,30.985L68.294,30.985z
			 M64.477,30.985c0-4.442-0.952-6.251-3.281-6.251c-2.336,0-3.288,1.809-3.288,6.251c0,4.433,0.952,6.246,3.288,6.246
			C63.524,37.231,64.477,35.418,64.477,30.985L64.477,30.985z M120.561,36.954v0.657h7.02v-0.665
			c-1.328-0.168-1.774-0.525-1.774-2.083c0,0,0-2.913,0-3.006c0.191-0.129,0.584-0.458,1.504-1.225c0,0,0.08-0.071,0.163-0.134
			c0.14,0.23,2.896,4.767,2.896,4.767c0.249,0.437,0.353,0.713,0.353,0.973c0,0.567-0.991,0.679-1.896,0.709
			c0.003,0-0.004,0.665-0.004,0.665h8.459l-0.006-0.661c-1.499-0.083-2.225-0.37-2.597-1.002c0-0.002-4.066-6.717-4.586-7.572
			c0.146-0.128,2.077-1.817,2.077-1.817c1.288-1.037,2.135-1.366,3.965-1.535l0.115-0.009v-0.662h-8.135v0.667l0.497,0.04
			c1.73,0.142,1.865,0.554,1.865,1.079c0,0.499-1.219,1.978-3.268,3.591c0,0-0.979,0.776-1.402,1.11c0-0.489,0-12.39,0-12.39
			l-0.145,0.023c-1.366,0.223-3.834,0.399-5.608,0.399h-0.125v0.676l0.118,0.005c2.289,0.137,2.289,0.295,2.289,2.21v13.099
			C122.335,36.426,121.979,36.726,120.561,36.954L120.561,36.954z M141.965,22.564c1.086,0,1.978-0.826,1.978-1.84
			c0-1.015-0.892-1.842-1.978-1.842c-1.091,0-1.979,0.827-1.979,1.842C139.985,21.739,140.874,22.564,141.965,22.564L141.965,22.564
			z M140.093,27.212v7.65c0,1.623-0.318,1.964-2.339,2.083v0.665h7.586v-0.665c-1.294-0.146-1.773-0.566-1.773-2.083V24.05
			l-0.143,0.021l-0.081,0.01c0.01,0-0.199,0.023-0.199,0.023c0.006,0-1.418,0.098-1.418,0.098c0.003,0-0.938,0.04-0.938,0.04
			l-0.912,0.044l-1.864,0.067h-0.32v0.644l0.178,0.009C140.093,25.167,140.093,25.32,140.093,27.212L140.093,27.212z M148.77,27.212
			v7.65c0,1.635-0.379,2.015-2.223,2.083l0.004,0.665h7.479V36.95c-1.271-0.135-1.787-0.617-1.787-2.118v-1.844
			c0-2.551,0.159-3.668,0.747-5.184c0.592-1.55,1.886-2.551,3.296-2.551c1.363,0,1.662,0.318,1.662,3.665v5.915
			c0,1.466-0.472,1.985-1.788,2.118v0.661h7.589v-0.665c-1.976-0.088-2.34-0.52-2.34-2.083v-5.615c0-2.43-0.112-3.043-0.713-3.856
			c-0.669-0.879-1.93-1.426-3.298-1.426c-1.387,0-2.749,0.541-3.735,1.485c-0.693,0.659-1.085,1.251-1.449,2.209
			c0-0.97,0-3.606,0-3.606l-0.207,0.027c-0.845,0.08-3.039,0.272-5.092,0.272h-0.539v0.644l0.175,0.009
			C148.77,25.162,148.77,25.24,148.77,27.212L148.77,27.212z M68.229,24.37V25c2.221,0.155,2.409,0.187,2.409,2.212v7.65
			c0,1.635-0.495,2.015-2.223,2.083v0.665h7.484l-0.004-0.665c-1.274-0.137-1.79-0.613-1.79-2.114v-1.844
			c0-2.551,0.161-3.668,0.748-5.184c0.592-1.55,1.886-2.551,3.296-2.551c1.368,0,1.658,0.318,1.658,3.665v5.915
			c0,1.527-0.5,1.972-1.786,2.118l0.001,0.661h7.59l-0.004-0.665c-1.96-0.1-2.336-0.428-2.336-2.083v-5.615
			c0-2.43-0.113-3.043-0.713-3.856c-0.667-0.879-1.93-1.426-3.298-1.426c-1.385,0-2.75,0.541-3.735,1.485
			c-0.692,0.659-1.081,1.251-1.447,2.209c0-0.968,0-3.606,0-3.606S70.518,24.37,68.229,24.37L68.229,24.37z M165.109,58.786
			c-2.038-0.186-2.32-0.441-2.32-2.098v-6.194c0-1.987-0.105-2.48-0.713-3.306c-0.659-0.905-1.859-1.396-3.381-1.396
			c-1.499,0-2.637,0.48-3.684,1.541c-0.636,0.65-0.975,1.196-1.309,2.118c-0.147-0.993-0.305-1.499-0.653-2.081
			c-0.587-0.975-1.824-1.578-3.251-1.578c-1.446,0-2.786,0.598-3.771,1.687c-0.55,0.573-0.883,1.102-1.225,1.955
			c0-0.931,0-3.561,0-3.561c-1.02,0.146-3.81,0.306-5.745,0.302v0.641c2.108,0.168,2.31,0.168,2.31,2.148v7.724
			c0,1.693-0.456,1.933-2.413,2.127l0.004,0.617h7.656v-0.617c-1.334-0.163-1.784-0.542-1.784-2.162v-2.001
			c0-2.438,0.162-3.594,0.697-4.944c0.641-1.648,1.852-2.633,3.237-2.633c1.142,0,1.611,0.646,1.611,2.236v7.342
			c0,1.611-0.4,1.951-1.782,2.158v0.621h6.993l-0.002-0.617c-1.326-0.167-1.776-0.581-1.776-2.162v-2.229
			c0-2.119,0.139-3.306,0.539-4.53c0.549-1.765,1.812-2.819,3.372-2.819c1.3,0,1.606,0.301,1.606,3.277v6.302
			c0,1.535-0.368,1.999-1.788,2.158v0.621h7.688l-0.004-0.634L165.109,58.786L165.109,58.786z M104.851,70.154
			c0,1.139-0.86,2.031-1.954,2.031c-1.095,0-1.831-0.732-1.831-1.826l0,0c0.039-0.634,0.341-0.934,0.483-1.078
			c0,0,0.02-0.017,0.038-0.038c-0.029-0.063-0.152-0.195-0.362-0.195c-0.927,0-1.809,0.804-2.244,2.041
			c-0.398,1.192-0.532,2.275-0.532,4.293v3.248c0,1.355,0.373,1.955,1.784,2.08l-0.006,0.66H84.3l0.006-0.663
			c1.759-0.166,2.01-0.697,2.01-1.231c0-0.389-0.109-0.792-0.476-1.715c-1.075-2.702-1.378-3.511-1.458-3.763
			c-0.175,0-6.165-0.008-6.328-0.008c-0.132,0.38-0.734,2.086-0.734,2.086c-0.45,1.293-0.628,1.939-0.64,2.573
			c-0.017,1.22,0.508,1.928,2.334,2.061v0.66h-7.112v-0.666c1.794-0.294,2.582-0.96,3.241-2.325
			c0.466-0.938,1.065-2.282,1.395-3.127c4.814-12.505,4.862-12.54,4.9-12.566l0.036-0.023h2.118h0.084l5.93,14.956
			c0.896,2.285,2.139,3.089,3.141,3.089c0.507,0,1.555-0.086,1.977-0.618c0.239-0.32,0.261-0.805,0.261-1.459v-7.65
			c0-1.859-0.021-2.081-2.296-2.194v-0.678l2.778-0.056l2.932-0.225c0,0,0,1.744,0,2.572c0.24-0.59,0.483-0.968,0.865-1.394
			c0.737-0.809,1.767-1.274,2.818-1.274C103.661,67.731,104.851,68.774,104.851,70.154L104.851,70.154z M84.001,73.151
			c-0.128-0.316-2.702-6.746-2.915-7.273c-0.195,0.521-1.645,4.391-1.645,4.391s-0.962,2.578-1.077,2.883
			C78.689,73.151,83.67,73.151,84.001,73.151L84.001,73.151z M37.869,34.851V18.49l-0.138,0.02l-0.265,0.039
			c-1.206,0.172-2.717,0.256-4.615,0.256h-0.325v0.632l0.168,0.025c1.269,0.145,1.708,0.293,1.708,2.302V34.83
			c0,1.646-0.318,1.899-2.39,2.116l0.002,0.665h7.641l-0.002-0.665C38.237,36.741,37.869,36.333,37.869,34.851L37.869,34.851z
			 M76.717,19.125l-0.005-0.642l-0.104-0.013c-1.394-0.209-1.679-0.567-1.679-2.125v-1.869c0-2.804,0.144-3.808,0.742-5.125
			c0.757-1.643,1.972-2.586,3.333-2.586c1.386,0,1.683,0.326,1.683,3.774v5.868c0,1.485-0.312,1.872-1.671,2.065l-0.104,0.016v0.636
			h7.597l-0.004-0.642l-0.115-0.01c-1.945-0.163-2.263-0.458-2.263-2.1v-5.833c0-2.442-0.123-2.976-0.861-3.814
			c-0.692-0.757-1.947-1.248-3.206-1.248c-1.361,0-2.711,0.531-3.708,1.455c-0.623,0.589-0.996,1.158-1.448,2.208
			c0-1.058,0-9.14,0-9.14L74.5,0.06c-1.221,0.174-2.729,0.257-4.615,0.257h-0.328v0.646l0.18,0.009
			c1.646,0.083,1.725,0.888,1.725,2.304v13.097c0,1.606-0.065,1.913-2.216,2.094l-0.113,0.01l0.004,0.648H76.717L76.717,19.125z
			 M19.015,18.873h-7.15v0.66c1.471,0.218,2.139,0.805,2.587,1.887c0.451,1.096,0.525,1.864,0.525,5.13c0,0,0,5.208,0,5.91
			C14.55,31.833,5.77,18.872,5.77,18.872H5.703l-5.702,0.001L0,19.556h0.124c1.24,0,1.982,0.487,3.036,1.984
			c0,0.083-0.009,8.396-0.009,8.396c0,3.264-0.077,4.03-0.527,5.126c-0.441,1.075-1.107,1.66-2.589,1.884
			c-0.002,0,0.001,0.665,0.001,0.665H7.19v-0.665c-1.002-0.131-1.833-0.539-2.286-1.196c-0.696-0.999-0.836-1.977-0.836-5.814
			c0,0,0-6.432,0-7.149c0.428,0.631,10.056,14.828,10.056,14.828h1.771V26.551c0-3.837,0.133-4.822,0.838-5.82
			c0.494-0.706,1.286-1.049,2.28-1.197L19.015,18.873L19.015,18.873z M111.489,32.463c0,2.857,0.062,3.154,0.512,3.924
			c0.575,0.964,1.925,1.583,3.446,1.583c1.527,0,2.812-0.619,3.436-1.662c0.474-0.769,0.732-1.939,0.732-3.336
			c0,0.004-0.803,0-0.803,0c-0.063,3.415-1.734,3.871-2.341,3.871c-1.172,0-1.548-0.416-1.548-3.03c0,0,0-8.401,0-8.643
			c0.231,0,3.99,0,3.99,0v-0.818c0,0-3.759,0-3.99,0c0-0.238,0-5.466,0-5.466h-0.117h-1.109l-0.012,0.115
			c-0.205,2.362-0.558,3.186-1.179,3.961c-0.661,0.872-1.818,1.361-3.363,1.418l-0.062,0.002l-0.116,0.002v0.786
			c0,0,2.301,0,2.523,0C111.489,25.411,111.489,32.463,111.489,32.463L111.489,32.463z M115.089,76.731
			c-0.06,3.411-1.733,3.871-2.341,3.871c-1.178,0-1.546-0.416-1.546-3.032c0,0,0-8.398,0-8.644c0.23,0,3.99,0,3.99,0v-0.819
			c0,0-3.76,0-3.99,0c0-0.234,0-5.46,0-5.46h-0.121h-1.107l-0.012,0.113c-0.207,2.359-0.558,3.189-1.181,3.959
			c-0.657,0.874-1.818,1.364-3.361,1.42h-0.062l-0.117,0.005v0.781c0,0,2.296,0,2.52,0c0,0.242,0,7.301,0,7.301
			c0,2.85,0.069,3.146,0.518,3.919c0.573,0.962,1.925,1.579,3.438,1.579c1.539,0,2.821-0.617,3.449-1.658
			c0.468-0.765,0.725-1.943,0.725-3.336C115.89,76.735,115.089,76.731,115.089,76.731L115.089,76.731z M65.014,62.082
			c-2.08,0-3.582,1.253-3.598,1.267c-1.272,1.09-1.746,2.265-1.918,4.77c-0.207,0-2.334,0-2.334,0v0.82c0,0,2.093,0,2.313,0
			c0,0.241,0,9.691,0,9.691c0,1.75-0.271,1.901-2.302,2.084l0.002,0.656h7.522l-0.004-0.66c-1.404-0.154-1.78-0.581-1.78-2.057
			c0,0,0.004-8.596,0.004-9.714c0.226,0,3.631,0,3.631,0v-0.82c0,0-3.413,0.002-3.631,0.002c-0.008-0.142,0-2.231,0-2.231
			c0-2.264,0.515-3.061,1.983-3.061c0.042,0,1.018,0.008,1.121,0.615c-0.006,0.004-0.109,0.14-0.109,0.14
			c-0.195,0.228-0.523,0.609-0.523,1.341c0,0.974,0.688,1.619,1.706,1.619c0.989,0,1.707-0.712,1.707-1.703
			C68.804,63.854,67.538,62.082,65.014,62.082L65.014,62.082z M66.257,58.791l0.001,0.637h9.479l0.001-0.629
			c-2.823-0.195-2.924-0.495-2.924-2.25V43.335c0-1.834,0.488-2.034,2.988-2.22l0.113-0.008l0.004-0.68l-6.995-0.003l-0.031,0.087
			c0,0-4.08,12.484-4.291,13.13c-0.219-0.665-4.408-13.217-4.408-13.217l-7,0.003l0.005,0.684c2.808,0.184,3.099,0.579,3.099,2.242
			v8.423c0,3.27-0.081,4.034-0.527,5.131c-0.452,1.103-1.048,1.665-2.585,1.891l0.008,0.632h7.057v-0.625
			c-0.018-0.008-1.612-0.234-2.287-1.211c-0.686-0.989-0.749-1.923-0.749-5.819c0,0,0-7.865,0-9.17
			c0.438,1.337,5.526,16.824,5.526,16.824h0.903l0.027-0.084c0.951-2.84,4.427-13.484,5.485-16.73c0,1.39,0,13.933,0,13.933
			C69.157,58.45,68.879,58.577,66.257,58.791L66.257,58.791z M90.037,59.51l2.972-0.079l-0.005-0.64
			c-1.984-0.14-2.522-0.418-2.522-2.104V45.88c-1.209,0.114-3.703,0.318-5.868,0.291v0.658c2.087,0.147,2.407,0.24,2.407,2.204
			v2.779c0,3.879-1.718,6.802-3.992,6.802c-1.146,0-1.656-0.959-1.656-3.11l-0.004-9.56c-1.075,0.119-4.118,0.236-6.123,0.236v0.65
			c2.219,0.106,2.688,0.33,2.688,1.903l-0.029,6.023c0,2.023,0.203,2.867,0.909,3.754c0.623,0.802,1.763,1.282,3.053,1.282
			c1.445,0,2.791-0.56,3.793-1.572c0.571-0.583,0.91-1.102,1.387-2.175c0,0.868-0.004,3.65-0.004,3.65
			C87.066,59.692,89.42,59.512,90.037,59.51L90.037,59.51z"/>
	</g>
</g>
</svg>
