<?xml version="1.0" encoding="utf-8"?>
<!-- Generator: Adobe Illustrator 16.0.3, SVG Export Plug-In . SVG Version: 6.00 Build 0)  -->
<!DOCTYPE svg PUBLIC "-//W3C//DTD SVG 1.1//EN" "http://www.w3.org/Graphics/SVG/1.1/DTD/svg11.dtd">
<svg version="1.1" id="Layer_1" xmlns="http://www.w3.org/2000/svg" xmlns:xlink="http://www.w3.org/1999/xlink" x="0px" y="0px"
	 width="52.253px" height="72.836px" viewBox="0 0 52.253 72.836" enable-background="new 0 0 52.253 72.836" xml:space="preserve">
<circle fill="none" stroke="#FFFFFF" stroke-width="3" stroke-miterlimit="10" cx="25.392" cy="23.263" r="21.762"/>
<g>
	<path fill="#FFFFFF" d="M11.691,60.711v-7.978h2.074l3.83,4.878v-4.878h2.063v7.978h-2.063l-3.83-4.877v4.877H11.691z"/>
	<path fill="#FFFFFF" d="M26.925,54.49h-2.464v1.333h2.328v1.756h-2.328v1.376h2.464v1.756h-4.538v-7.978h4.538V54.49z"/>
	<path fill="#FFFFFF" d="M30.808,52.733l1.376,5.152l1.692-5.152h1.65l1.693,5.152l1.375-5.152h2.169l-2.38,7.978h-2.117
		l-1.565-4.623l-1.565,4.623H31.02l-2.38-7.978H30.808z"/>
</g>
<g>
	<path fill="#FFFFFF" d="M6.104,67.302c-0.479-0.585-1.072-0.878-1.777-0.878c-0.311,0-0.598,0.057-0.862,0.17
		c-0.265,0.112-0.492,0.266-0.682,0.46s-0.341,0.425-0.45,0.692c-0.109,0.269-0.164,0.558-0.164,0.868
		c0,0.317,0.055,0.61,0.164,0.878c0.109,0.269,0.261,0.501,0.455,0.698c0.194,0.197,0.421,0.353,0.683,0.466
		c0.261,0.112,0.543,0.169,0.846,0.169c0.663,0,1.259-0.282,1.788-0.847v2.455l-0.211,0.074c-0.317,0.112-0.614,0.195-0.889,0.248
		c-0.275,0.053-0.547,0.08-0.815,0.08c-0.55,0-1.077-0.104-1.582-0.312s-0.949-0.501-1.333-0.878
		c-0.385-0.378-0.693-0.825-0.926-1.344S0,69.217,0,68.604s0.115-1.176,0.344-1.688s0.536-0.952,0.92-1.322s0.831-0.659,1.338-0.868
		c0.508-0.207,1.041-0.312,1.598-0.312c0.317,0,0.629,0.033,0.937,0.101c0.307,0.067,0.629,0.171,0.968,0.312V67.302z"/>
	<path fill="#FFFFFF" d="M13.362,71.228H10.4l-0.476,1.386H7.713l3.036-7.978h2.264l3.037,7.978h-2.211L13.362,71.228z
		 M12.812,69.651l-0.931-2.656l-0.931,2.656H12.812z"/>
	<path fill="#FFFFFF" d="M18.017,72.613v-7.978h2.074l3.83,4.878v-4.878h2.063v7.978H23.92l-3.83-4.877v4.877H18.017z"/>
	<path fill="#FFFFFF" d="M30.121,64.636l1.926,4.856l1.936-4.856h2.254l-3.365,7.978h-1.65l-3.354-7.978H30.121z"/>
	<path fill="#FFFFFF" d="M42.065,71.228h-2.962l-0.477,1.386h-2.211l3.036-7.978h2.265l3.036,7.978h-2.212L42.065,71.228z
		 M41.515,69.651l-0.932-2.656l-0.931,2.656H41.515z"/>
	<path fill="#FFFFFF" d="M51.099,66.678c-0.225-0.183-0.451-0.318-0.677-0.407c-0.226-0.088-0.444-0.132-0.655-0.132
		c-0.269,0-0.487,0.063-0.656,0.19c-0.17,0.127-0.254,0.293-0.254,0.497c0,0.142,0.042,0.258,0.127,0.349
		c0.084,0.092,0.195,0.172,0.333,0.238c0.138,0.067,0.292,0.126,0.466,0.175c0.172,0.05,0.344,0.103,0.513,0.158
		c0.677,0.227,1.173,0.527,1.487,0.905c0.312,0.377,0.471,0.869,0.471,1.476c0,0.409-0.069,0.779-0.207,1.111
		c-0.137,0.331-0.338,0.615-0.604,0.852c-0.264,0.236-0.588,0.42-0.973,0.55c-0.385,0.131-0.82,0.196-1.307,0.196
		c-1.009,0-1.943-0.3-2.804-0.899l0.889-1.672c0.311,0.275,0.617,0.479,0.921,0.613c0.303,0.135,0.603,0.201,0.898,0.201
		c0.339,0,0.592-0.077,0.757-0.232s0.249-0.332,0.249-0.529c0-0.12-0.021-0.224-0.064-0.312c-0.041-0.088-0.112-0.169-0.211-0.243
		c-0.1-0.074-0.228-0.143-0.387-0.206c-0.158-0.063-0.351-0.134-0.576-0.212c-0.268-0.084-0.531-0.178-0.788-0.28
		c-0.257-0.102-0.487-0.237-0.688-0.407c-0.201-0.169-0.364-0.383-0.487-0.64c-0.123-0.258-0.185-0.584-0.185-0.979
		c0-0.396,0.065-0.753,0.196-1.074c0.13-0.321,0.312-0.596,0.549-0.825s0.525-0.407,0.868-0.534c0.342-0.127,0.725-0.19,1.147-0.19
		c0.396,0,0.809,0.055,1.238,0.164s0.843,0.27,1.238,0.481L51.099,66.678z"/>
</g>
<polygon fill="none" stroke="#FFFFFF" stroke-width="3" stroke-miterlimit="10" points="25.392,17.43 30.219,12.969 29.742,19.524 
	36.24,20.518 30.815,24.231 34.091,29.93 27.806,28.005 25.392,34.119 22.978,28.005 16.693,29.93 19.968,24.231 14.545,20.518 
	21.042,19.524 20.564,12.969 "/>
</svg>
