<?xml version="1.0" encoding="utf-8"?>
<!-- Generator: Adobe Illustrator 16.0.3, SVG Export Plug-In . SVG Version: 6.00 Build 0)  -->
<!DOCTYPE svg PUBLIC "-//W3C//DTD SVG 1.1//EN" "http://www.w3.org/Graphics/SVG/1.1/DTD/svg11.dtd">
<svg version="1.1" id="Layer_1" xmlns="http://www.w3.org/2000/svg" xmlns:xlink="http://www.w3.org/1999/xlink" x="0px" y="0px"
	 width="42.92px" height="66.582px" viewBox="0 0 42.92 66.582" enable-background="new 0 0 42.92 66.582" xml:space="preserve">
<path fill="#FFFFFF" d="M21.372,42.172c-11.627,0-21.086-9.459-21.086-21.086S9.745,0,21.372,0C33,0,42.458,9.459,42.458,21.086
	S33,42.172,21.372,42.172 M21.372,3C11.399,3,3.286,11.113,3.286,21.086s8.113,18.086,18.086,18.086s18.086-8.113,18.086-18.086
	S31.345,3,21.372,3"/>
<path fill="#FFFFFF" d="M16.331,54.484h-2.529l-2.608-5.029H11.15c0.062,0.791,0.093,1.395,0.093,1.812v3.218H9.534v-7.139h2.52
	l2.597,4.961h0.03c-0.046-0.72-0.069-1.297-0.069-1.733v-3.228h1.719V54.484z"/>
<polygon fill="#FFFFFF" points="22.613,54.484 18.375,54.484 18.375,47.346 22.613,47.346 22.613,48.894 20.302,48.894 
	20.302,50.017 22.441,50.017 22.441,51.564 20.302,51.564 20.302,52.912 22.613,52.912 "/>
<path fill="#FFFFFF" d="M32.072,54.484h-2.279l-0.684-3.11c-0.033-0.13-0.084-0.389-0.154-0.776s-0.121-0.711-0.153-0.972
	c-0.026,0.212-0.069,0.475-0.127,0.788c-0.06,0.314-0.117,0.604-0.174,0.867c-0.058,0.264-0.294,1.331-0.71,3.203h-2.28
	l-1.769-7.139h1.86l0.777,3.579c0.175,0.79,0.296,1.421,0.36,1.89c0.043-0.332,0.119-0.783,0.228-1.353s0.211-1.042,0.305-1.416
	l0.63-2.7h1.787l0.611,2.7c0.104,0.433,0.21,0.933,0.316,1.499c0.107,0.566,0.18,0.989,0.215,1.27
	c0.043-0.361,0.158-0.988,0.347-1.88l0.791-3.589h1.86L32.072,54.484z"/>
<path fill="#FFFFFF" d="M3.442,60.825c-0.459,0-0.817,0.188-1.074,0.563c-0.258,0.377-0.386,0.895-0.386,1.556
	c0,1.374,0.523,2.061,1.567,2.061c0.316,0,0.622-0.044,0.918-0.132c0.297-0.088,0.595-0.193,0.894-0.317v1.631
	c-0.596,0.264-1.27,0.396-2.022,0.396c-1.077,0-1.903-0.312-2.478-0.938C0.287,65.02,0,64.116,0,62.935
	c0-0.739,0.139-1.389,0.417-1.948c0.278-0.56,0.679-0.99,1.201-1.291c0.523-0.302,1.137-0.452,1.844-0.452
	c0.771,0,1.508,0.168,2.211,0.503l-0.59,1.519c-0.264-0.124-0.528-0.228-0.791-0.312C4.028,60.867,3.745,60.825,3.442,60.825"/>
<path fill="#FFFFFF" d="M11.632,66.484l-0.352-1.338H8.961L8.6,66.484H6.481l2.329-7.168h2.573l2.358,7.168H11.632z M10.88,63.564
	l-0.308-1.172c-0.071-0.261-0.158-0.599-0.261-1.011c-0.102-0.413-0.17-0.71-0.202-0.889c-0.03,0.166-0.087,0.439-0.174,0.82
	c-0.086,0.381-0.277,1.131-0.574,2.251H10.88z"/>
<path fill="#FFFFFF" d="M21.81,66.484h-2.529l-2.608-5.029h-0.044c0.062,0.791,0.093,1.395,0.093,1.812v3.218h-1.709v-7.139h2.52
	l2.597,4.961h0.03c-0.046-0.72-0.069-1.297-0.069-1.733v-3.228h1.719V66.484z"/>
<path fill="#FFFFFF" d="M27.712,59.346h2.158l-2.34,7.139h-2.27l-2.329-7.139H25.1l0.971,3.618c0.202,0.804,0.313,1.364,0.332,1.68
	c0.022-0.228,0.069-0.513,0.138-0.854c0.067-0.342,0.129-0.61,0.181-0.806L27.712,59.346z"/>
<path fill="#FFFFFF" d="M34.872,66.484l-0.353-1.338h-2.318l-0.361,1.338H29.72l2.33-7.168h2.572l2.357,7.168H34.872z M34.12,63.564
	l-0.308-1.172c-0.071-0.261-0.158-0.599-0.262-1.011c-0.102-0.413-0.17-0.71-0.201-0.889c-0.03,0.166-0.088,0.439-0.174,0.82
	c-0.087,0.381-0.277,1.131-0.574,2.251H34.12z"/>
<path fill="#FFFFFF" d="M42.92,64.316c0,0.442-0.112,0.836-0.337,1.18c-0.225,0.343-0.548,0.609-0.973,0.801
	c-0.422,0.189-0.918,0.285-1.488,0.285c-0.475,0-0.874-0.033-1.196-0.1c-0.321-0.067-0.657-0.184-1.006-0.35v-1.719
	c0.368,0.188,0.75,0.336,1.147,0.441c0.396,0.107,0.762,0.159,1.094,0.159c0.287,0,0.497-0.05,0.63-0.149
	c0.133-0.099,0.2-0.227,0.2-0.383c0-0.098-0.027-0.184-0.08-0.256c-0.055-0.074-0.141-0.147-0.26-0.222
	c-0.118-0.076-0.436-0.229-0.949-0.459c-0.465-0.213-0.814-0.417-1.047-0.616c-0.233-0.198-0.405-0.426-0.519-0.684
	c-0.112-0.257-0.168-0.562-0.168-0.913c0-0.657,0.239-1.17,0.718-1.537c0.479-0.369,1.137-0.553,1.973-0.553
	c0.738,0,1.492,0.171,2.261,0.513l-0.591,1.489c-0.667-0.306-1.243-0.459-1.729-0.459c-0.25,0-0.433,0.044-0.547,0.132
	c-0.113,0.088-0.171,0.197-0.171,0.327c0,0.14,0.072,0.266,0.218,0.376c0.145,0.11,0.537,0.312,1.178,0.605
	c0.617,0.277,1.043,0.574,1.283,0.891C42.8,63.436,42.92,63.835,42.92,64.316"/>
<path fill="#FFFFFF" d="M21.372,34.942l-3.059-7.748l-7.963,2.439l4.149-7.222l-6.872-4.706l8.234-1.257l-0.606-8.307l6.117,5.652
	l6.118-5.652l-0.606,8.307l8.233,1.257l-6.873,4.706l4.15,7.222l-7.964-2.439L21.372,34.942z M19.968,23.732l1.404,3.556
	l1.405-3.556l3.654,1.119l-1.904-3.314l3.154-2.16L23.902,18.8l0.277-3.814l-2.807,2.595l-2.808-2.595l0.278,3.814l-3.779,0.577
	l3.154,2.16l-1.905,3.314L19.968,23.732z"/>
</svg>
