<?xml version="1.0" encoding="utf-8"?>
<!-- Generator: Adobe Illustrator 16.0.3, SVG Export Plug-In . SVG Version: 6.00 Build 0)  -->
<!DOCTYPE svg PUBLIC "-//W3C//DTD SVG 1.1//EN" "http://www.w3.org/Graphics/SVG/1.1/DTD/svg11.dtd">
<svg version="1.1" id="Layer_1" xmlns="http://www.w3.org/2000/svg" xmlns:xlink="http://www.w3.org/1999/xlink" x="0px" y="0px"
	 width="42.886px" height="55.092px" viewBox="0 0 42.886 55.092" enable-background="new 0 0 42.886 55.092" xml:space="preserve">
<g>
	<defs>
		<rect id="SVGID_1_" width="42.886" height="55.092"/>
	</defs>
	<clipPath id="SVGID_2_">
		<use xlink:href="#SVGID_1_"  overflow="visible"/>
	</clipPath>
	<path clip-path="url(#SVGID_2_)" fill="#FFFFFF" d="M21.443,42.475c-11.627,0-21.086-9.459-21.086-21.085
		c0-11.627,9.459-21.086,21.086-21.086c11.626,0,21.085,9.459,21.085,21.086C42.528,33.016,33.069,42.475,21.443,42.475
		 M21.443,3.303c-9.974,0-18.086,8.113-18.086,18.086c0,9.972,8.113,18.085,18.086,18.085c9.972,0,18.085-8.113,18.085-18.085
		C39.528,11.416,31.415,3.303,21.443,3.303"/>
	<path clip-path="url(#SVGID_2_)" fill="#FFFFFF" d="M13.609,32.736V10.165l19.549,11.286L13.609,32.736z M16.609,15.36v12.183
		l10.549-6.092L16.609,15.36z"/>
	<path clip-path="url(#SVGID_2_)" fill="#FFFFFF" d="M14.334,49.92c0,0.798-0.235,1.413-0.706,1.849
		c-0.47,0.433-1.138,0.651-2.004,0.651h-0.542v2.367H9.153v-7.138h2.471c0.901,0,1.579,0.197,2.031,0.591
		C14.107,48.634,14.334,49.194,14.334,49.92 M11.083,50.848h0.352c0.29,0,0.52-0.081,0.69-0.244
		c0.172-0.163,0.257-0.388,0.257-0.674c0-0.481-0.267-0.723-0.801-0.723h-0.498V50.848z"/>
	<polygon clip-path="url(#SVGID_2_)" fill="#FFFFFF" points="15.472,54.788 15.472,47.649 17.401,47.649 17.401,53.23 20.15,53.23 
		20.15,54.788 	"/>
	<path clip-path="url(#SVGID_2_)" fill="#FFFFFF" d="M26.252,54.788L25.9,53.45h-2.319l-0.361,1.338h-2.119l2.329-7.168h2.573
		l2.358,7.168H26.252z M25.5,51.868l-0.308-1.172c-0.071-0.261-0.158-0.599-0.262-1.011c-0.102-0.413-0.17-0.711-0.202-0.889
		c-0.029,0.166-0.087,0.439-0.173,0.82c-0.087,0.381-0.278,1.131-0.574,2.251H25.5z"/>
	<polygon clip-path="url(#SVGID_2_)" fill="#FFFFFF" points="31.182,50.296 32.411,47.649 34.502,47.649 32.153,52 32.153,54.788 
		30.21,54.788 30.21,52.059 27.861,47.649 29.961,47.649 	"/>
</g>
</svg>
