<?xml version="1.0" encoding="utf-8"?>
<!-- Generator: Adobe Illustrator 16.0.3, SVG Export Plug-In . SVG Version: 6.00 Build 0)  -->
<!DOCTYPE svg PUBLIC "-//W3C//DTD SVG 1.1//EN" "http://www.w3.org/Graphics/SVG/1.1/DTD/svg11.dtd">
<svg version="1.1" id="Layer_1" xmlns="http://www.w3.org/2000/svg" xmlns:xlink="http://www.w3.org/1999/xlink" x="0px" y="0px"
	 width="46.524px" height="64.35px" viewBox="0 0 46.524 64.35" enable-background="new 0 0 46.524 64.35" xml:space="preserve">
<path fill="#251F12" d="M45.024,23.263c0,12.019-9.743,21.762-21.762,21.762c-12.02,0-21.763-9.743-21.763-21.762
	C1.5,11.242,11.243,1.5,23.263,1.5C35.281,1.5,45.024,11.242,45.024,23.263"/>
<circle fill="none" stroke="#251F12" stroke-width="3" stroke-miterlimit="10" cx="23.262" cy="23.263" r="21.762"/>
<polyline fill="none" stroke="#FFFFFF" stroke-width="3" stroke-miterlimit="10" points="29.513,32.042 21.909,27.652 
	14.307,23.263 21.909,18.873 29.513,14.483 "/>
<path fill="#FFFFFF" d="M18.621,23.263c0,2.382-1.932,4.312-4.314,4.312s-4.313-1.931-4.313-4.312c0-2.383,1.931-4.314,4.313-4.314
	S18.621,20.88,18.621,23.263"/>
<path fill="#FFFFFF" d="M33.827,32.042c0,2.382-1.932,4.312-4.314,4.312c-2.382,0-4.313-1.931-4.313-4.312
	c0-2.383,1.932-4.314,4.313-4.314C31.896,27.728,33.827,29.659,33.827,32.042"/>
<path fill="#FFFFFF" d="M33.827,14.483c0,2.382-1.932,4.312-4.314,4.312c-2.382,0-4.313-1.931-4.313-4.312
	c0-2.383,1.932-4.314,4.313-4.314C31.896,10.169,33.827,12.101,33.827,14.483"/>
<text transform="matrix(1 0 0 1 3.001 60.71)"><tspan x="0" y="0" fill="#231F20" font-family="'Futura-Bold'" font-size="10.5797" letter-spacing="1">SHAR</tspan><tspan x="35.865" y="0" fill="#231F20" font-family="'Futura-Bold'" font-size="10.5797">E</tspan></text>
</svg>
