<?xml version="1.0" encoding="utf-8"?>
<!-- Generator: Adobe Illustrator 16.0.3, SVG Export Plug-In . SVG Version: 6.00 Build 0)  -->
<!DOCTYPE svg PUBLIC "-//W3C//DTD SVG 1.1//EN" "http://www.w3.org/Graphics/SVG/1.1/DTD/svg11.dtd">
<svg version="1.1" id="Layer_1" xmlns="http://www.w3.org/2000/svg" xmlns:xlink="http://www.w3.org/1999/xlink" x="0px" y="0px"
	 width="46.524px" height="60.933px" viewBox="0 0 46.524 60.933" enable-background="new 0 0 46.524 60.933" xml:space="preserve">
<circle fill="none" stroke="#FFFFFF" stroke-width="3" stroke-miterlimit="10" cx="23.262" cy="23.262" r="21.762"/>
<polyline fill="none" stroke="#FFFFFF" stroke-width="3" stroke-miterlimit="10" points="18.039,21.106 21.909,18.872 
	25.198,16.974 "/>
<polyline fill="none" stroke="#FFFFFF" stroke-width="3" stroke-miterlimit="10" points="25.777,29.885 21.909,27.651 18.62,25.753 
	"/>
<circle fill="none" stroke="#FFFFFF" stroke-width="3" stroke-miterlimit="10" cx="14.306" cy="23.262" r="4.314"/>
<circle fill="none" stroke="#FFFFFF" stroke-width="3" stroke-miterlimit="10" cx="29.512" cy="32.041" r="4.314"/>
<circle fill="none" stroke="#FFFFFF" stroke-width="3" stroke-miterlimit="10" cx="29.512" cy="14.482" r="4.314"/>
<g>
	<path fill="#FFFFFF" d="M8.217,54.774c-0.226-0.183-0.451-0.318-0.677-0.407c-0.227-0.088-0.444-0.132-0.656-0.132
		c-0.269,0-0.486,0.063-0.656,0.19c-0.169,0.127-0.254,0.293-0.254,0.497c0,0.142,0.043,0.258,0.127,0.349
		c0.085,0.092,0.196,0.172,0.334,0.238c0.137,0.067,0.292,0.126,0.465,0.175c0.173,0.05,0.344,0.103,0.514,0.158
		c0.677,0.227,1.172,0.527,1.486,0.905c0.313,0.377,0.471,0.869,0.471,1.476c0,0.409-0.069,0.779-0.206,1.111
		c-0.138,0.331-0.339,0.615-0.604,0.852s-0.589,0.42-0.974,0.55c-0.384,0.131-0.819,0.196-1.307,0.196
		c-1.008,0-1.942-0.3-2.803-0.899l0.889-1.672c0.31,0.275,0.616,0.479,0.92,0.613c0.304,0.135,0.604,0.201,0.899,0.201
		c0.339,0,0.591-0.077,0.757-0.232c0.165-0.155,0.248-0.332,0.248-0.529c0-0.12-0.021-0.224-0.063-0.312
		c-0.042-0.088-0.112-0.169-0.212-0.243c-0.099-0.074-0.227-0.143-0.386-0.206c-0.158-0.063-0.351-0.134-0.576-0.212
		c-0.269-0.084-0.531-0.178-0.789-0.28c-0.257-0.102-0.486-0.237-0.688-0.407c-0.201-0.169-0.363-0.383-0.486-0.64
		c-0.123-0.258-0.186-0.584-0.186-0.979c0-0.396,0.065-0.753,0.196-1.074c0.13-0.321,0.313-0.596,0.55-0.825
		s0.525-0.407,0.868-0.534c0.342-0.127,0.725-0.19,1.147-0.19c0.395,0,0.808,0.055,1.238,0.164c0.43,0.109,0.842,0.27,1.237,0.481
		L8.217,54.774z"/>
	<path fill="#FFFFFF" d="M13.803,55.812h2.994v-3.079h2.074v7.978h-2.074v-3.29h-2.994v3.29h-2.073v-7.978h2.073V55.812z"/>
	<path fill="#FFFFFF" d="M26.488,59.324h-2.962L23.05,60.71h-2.211l3.036-7.978h2.265l3.036,7.978h-2.211L26.488,59.324z
		 M25.938,57.748l-0.932-2.656l-0.931,2.656H25.938z"/>
	<path fill="#FFFFFF" d="M37.777,60.71h-2.582l-1.979-3.068v3.068h-2.073v-7.978h3.227c0.444,0,0.832,0.065,1.164,0.196
		c0.331,0.131,0.604,0.309,0.819,0.534c0.216,0.226,0.378,0.486,0.487,0.783c0.109,0.296,0.164,0.613,0.164,0.952
		c0,0.606-0.146,1.099-0.439,1.476s-0.725,0.633-1.296,0.767L37.777,60.71z M33.217,56.298h0.392c0.409,0,0.723-0.084,0.941-0.254
		c0.219-0.169,0.328-0.412,0.328-0.729s-0.109-0.561-0.328-0.73c-0.219-0.169-0.532-0.254-0.941-0.254h-0.392V56.298z"/>
	<path fill="#FFFFFF" d="M44.241,54.489h-2.466v1.333h2.328v1.756h-2.328v1.376h2.466v1.756h-4.539v-7.978h4.539V54.489z"/>
</g>
</svg>
