<?xml version="1.0" encoding="utf-8"?>
<!-- Generator: Adobe Illustrator 16.0.3, SVG Export Plug-In . SVG Version: 6.00 Build 0)  -->
<!DOCTYPE svg PUBLIC "-//W3C//DTD SVG 1.1//EN" "http://www.w3.org/Graphics/SVG/1.1/DTD/svg11.dtd">
<svg version="1.1" id="Layer_1" xmlns="http://www.w3.org/2000/svg" xmlns:xlink="http://www.w3.org/1999/xlink" x="0px" y="0px"
	 width="42.886px" height="55.092px" viewBox="0 0 42.886 55.092" enable-background="new 0 0 42.886 55.092" xml:space="preserve">
<g>
	<defs>
		<rect id="SVGID_1_" width="42.886" height="55.092"/>
	</defs>
	<clipPath id="SVGID_2_">
		<use xlink:href="#SVGID_1_"  overflow="visible"/>
	</clipPath>
	<path clip-path="url(#SVGID_2_)" fill="#FFFFFF" d="M21.443,42.426c-11.627,0-21.086-9.459-21.086-21.085
		c0-11.627,9.459-21.086,21.086-21.086c11.626,0,21.085,9.459,21.085,21.086C42.528,32.967,33.069,42.426,21.443,42.426
		 M21.443,3.254c-9.974,0-18.086,8.113-18.086,18.086c0,9.972,8.113,18.085,18.086,18.085c9.972,0,18.085-8.113,18.085-18.085
		C39.528,11.367,31.415,3.254,21.443,3.254"/>
	<path clip-path="url(#SVGID_2_)" fill="#FFFFFF" d="M13.398,52.571c0,0.442-0.112,0.836-0.337,1.18
		c-0.225,0.342-0.549,0.609-0.972,0.8c-0.422,0.19-0.92,0.286-1.489,0.286c-0.475,0-0.874-0.034-1.196-0.1
		c-0.322-0.067-0.657-0.185-1.006-0.351v-1.718c0.368,0.188,0.75,0.336,1.147,0.441c0.398,0.106,0.762,0.159,1.094,0.159
		c0.286,0,0.496-0.051,0.63-0.149c0.134-0.099,0.2-0.227,0.2-0.383c0-0.098-0.026-0.185-0.081-0.256
		c-0.053-0.074-0.139-0.147-0.258-0.223s-0.435-0.228-0.95-0.459c-0.466-0.212-0.814-0.417-1.048-0.615
		c-0.232-0.198-0.404-0.427-0.517-0.684c-0.112-0.257-0.168-0.562-0.168-0.913c0-0.657,0.239-1.17,0.718-1.538
		c0.478-0.368,1.135-0.552,1.972-0.552c0.74,0,1.492,0.171,2.261,0.512l-0.591,1.49c-0.667-0.306-1.243-0.459-1.728-0.459
		c-0.251,0-0.433,0.044-0.547,0.132c-0.114,0.087-0.171,0.197-0.171,0.327c0,0.14,0.072,0.266,0.217,0.376s0.538,0.312,1.179,0.605
		c0.616,0.276,1.043,0.574,1.282,0.891C13.279,51.69,13.398,52.09,13.398,52.571"/>
	<polygon clip-path="url(#SVGID_2_)" fill="#FFFFFF" points="18.401,54.739 16.472,54.739 16.472,49.177 14.729,49.177 
		14.729,47.601 20.139,47.601 20.139,49.177 18.401,49.177 	"/>
	<path clip-path="url(#SVGID_2_)" fill="#FFFFFF" d="M27.84,51.16c0,1.201-0.295,2.114-0.884,2.739s-1.452,0.938-2.588,0.938
		c-1.12,0-1.979-0.314-2.575-0.942c-0.598-0.629-0.896-1.543-0.896-2.744c0-1.188,0.297-2.096,0.891-2.722
		c0.595-0.627,1.458-0.94,2.591-0.94c1.136,0,1.997,0.311,2.583,0.933S27.84,49.956,27.84,51.16 M22.928,51.16
		c0,1.38,0.479,2.07,1.44,2.07c0.488,0,0.851-0.168,1.087-0.503c0.235-0.335,0.354-0.857,0.354-1.567
		c0-0.713-0.119-1.239-0.36-1.579c-0.237-0.341-0.595-0.511-1.07-0.511C23.411,49.07,22.928,49.766,22.928,51.16"/>
	<path clip-path="url(#SVGID_2_)" fill="#FFFFFF" d="M34.56,49.871c0,0.798-0.235,1.413-0.706,1.849
		c-0.47,0.433-1.138,0.651-2.004,0.651h-0.542v2.368h-1.929v-7.139h2.471c0.901,0,1.579,0.197,2.031,0.591
		S34.56,49.146,34.56,49.871 M31.308,50.799h0.352c0.29,0,0.521-0.081,0.69-0.244c0.172-0.163,0.257-0.388,0.257-0.674
		c0-0.481-0.267-0.723-0.801-0.723h-0.498V50.799z"/>
	<path clip-path="url(#SVGID_2_)" fill="#FFFFFF" d="M30.535,30.188H12.486V12.14h18.049V30.188z M15.486,27.188h12.049V15.139
		H15.486V27.188z"/>
</g>
</svg>
