<?xml version="1.0" encoding="utf-8"?>
<!-- Generator: Adobe Illustrator 16.0.3, SVG Export Plug-In . SVG Version: 6.00 Build 0)  -->
<!DOCTYPE svg PUBLIC "-//W3C//DTD SVG 1.1//EN" "http://www.w3.org/Graphics/SVG/1.1/DTD/svg11.dtd">
<svg version="1.1" id="Layer_1" xmlns="http://www.w3.org/2000/svg" xmlns:xlink="http://www.w3.org/1999/xlink" x="0px" y="0px"
	 width="46.524px" height="60.263px" viewBox="0 0 46.524 60.263" enable-background="new 0 0 46.524 60.263" xml:space="preserve">
<g>
	<path fill="#FFFFFF" d="M14.248,53.819v6.221h-2.073v-6.221h-1.703v-1.757h5.48v1.757H14.248z"/>
	<path fill="#FFFFFF" d="M20.004,52.062v7.978h-2.073v-7.978H20.004z"/>
	<path fill="#FFFFFF" d="M24.807,60.04h-2.073v-7.978h3.301c0.896,0,1.582,0.233,2.058,0.698c0.477,0.466,0.714,1.122,0.714,1.968
		c0,0.847-0.237,1.503-0.714,1.969c-0.476,0.465-1.162,0.698-2.058,0.698h-1.228V60.04z M24.807,55.724h0.688
		c0.762,0,1.144-0.332,1.144-0.995c0-0.662-0.382-0.994-1.144-0.994h-0.688V55.724z"/>
	<path fill="#FFFFFF" d="M35.344,54.104c-0.226-0.183-0.451-0.318-0.677-0.407c-0.227-0.088-0.444-0.132-0.656-0.132
		c-0.269,0-0.486,0.063-0.656,0.19c-0.169,0.127-0.254,0.293-0.254,0.497c0,0.142,0.043,0.258,0.127,0.349
		c0.085,0.092,0.196,0.172,0.334,0.238c0.137,0.067,0.292,0.126,0.465,0.175c0.173,0.05,0.344,0.103,0.514,0.158
		c0.677,0.227,1.172,0.527,1.486,0.905c0.313,0.377,0.471,0.869,0.471,1.476c0,0.409-0.069,0.779-0.206,1.111
		c-0.138,0.331-0.339,0.615-0.604,0.852s-0.589,0.42-0.974,0.55c-0.384,0.131-0.819,0.196-1.307,0.196
		c-1.008,0-1.942-0.3-2.803-0.899l0.889-1.672c0.31,0.275,0.616,0.479,0.92,0.613c0.304,0.135,0.604,0.201,0.899,0.201
		c0.339,0,0.591-0.077,0.757-0.232c0.165-0.155,0.248-0.332,0.248-0.529c0-0.12-0.021-0.224-0.063-0.312
		c-0.042-0.088-0.112-0.169-0.212-0.243c-0.099-0.074-0.227-0.143-0.386-0.206c-0.158-0.063-0.351-0.134-0.576-0.212
		c-0.269-0.084-0.531-0.178-0.789-0.28c-0.257-0.102-0.486-0.237-0.688-0.407c-0.201-0.169-0.363-0.383-0.486-0.64
		c-0.123-0.258-0.186-0.584-0.186-0.979c0-0.396,0.065-0.753,0.196-1.074c0.13-0.321,0.313-0.596,0.55-0.825
		s0.525-0.407,0.868-0.534c0.342-0.127,0.725-0.19,1.147-0.19c0.395,0,0.808,0.055,1.238,0.164c0.43,0.109,0.842,0.27,1.237,0.481
		L35.344,54.104z"/>
</g>
<circle fill="none" stroke="#FFFFFF" stroke-width="3" stroke-miterlimit="10" cx="23.262" cy="23.262" r="21.762"/>
<path fill="none" stroke="#FFFFFF" stroke-width="3" stroke-miterlimit="10" d="M31.138,16.796c0-4.064-4.022-7.308-8.774-6.848
	c-3.632,0.353-6.569,2.954-6.936,6.136c-0.207,1.803,0.383,3.479,1.497,4.796c1.475,1.743,2.335,3.824,2.335,5.992v1.567h8.005
	v-1.567c0-2.108,0.73-4.19,2.213-5.853C30.518,19.854,31.138,18.39,31.138,16.796z"/>
<line fill="none" stroke="#FFFFFF" stroke-width="3" stroke-miterlimit="10" x1="17.887" y1="33.006" x2="28.638" y2="33.006"/>
<line fill="none" stroke="#FFFFFF" stroke-width="3" stroke-miterlimit="10" x1="20.293" y1="37.573" x2="26.231" y2="37.573"/>
</svg>
