<?xml version="1.0" encoding="utf-8"?>
<!-- Generator: Adobe Illustrator 16.0.3, SVG Export Plug-In . SVG Version: 6.00 Build 0)  -->
<!DOCTYPE svg PUBLIC "-//W3C//DTD SVG 1.1//EN" "http://www.w3.org/Graphics/SVG/1.1/DTD/svg11.dtd">
<svg version="1.1" id="Layer_1" xmlns="http://www.w3.org/2000/svg" xmlns:xlink="http://www.w3.org/1999/xlink" x="0px" y="0px"
	 width="42.172px" height="53.932px" viewBox="0 0 42.172 53.932" enable-background="new 0 0 42.172 53.932" xml:space="preserve">
<polygon fill="#FFFFFF" points="13.636,53.752 11.871,53.752 11.871,48.458 10.412,48.458 10.412,46.964 15.094,46.964 
	15.094,48.458 13.636,48.458 "/>
<rect x="16.632" y="46.964" fill="#FFFFFF" width="1.765" height="6.788"/>
<path fill="#FFFFFF" d="M20.447,46.964h2.701c1.458,0,2.467,0.675,2.467,2.232c0,1.603-0.864,2.305-2.404,2.305h-0.999v2.251h-1.765
	V46.964z M22.212,50.079h0.297c0.64,0,1.269,0,1.269-0.828c0-0.855-0.584-0.864-1.269-0.864h-0.297V50.079z"/>
<path fill="#FFFFFF" d="M30.574,48.71c-0.324-0.271-0.738-0.449-1.171-0.449c-0.324,0-0.756,0.188-0.756,0.566
	c0,0.396,0.477,0.55,0.782,0.648l0.451,0.135c0.945,0.279,1.674,0.757,1.674,1.854c0,0.676-0.162,1.369-0.702,1.828
	c-0.531,0.45-1.242,0.639-1.926,0.639c-0.855,0-1.693-0.288-2.386-0.773l0.756-1.423c0.441,0.387,0.963,0.702,1.566,0.702
	c0.414,0,0.855-0.207,0.855-0.685c0-0.495-0.693-0.666-1.071-0.773c-1.107-0.315-1.837-0.604-1.837-1.918
	c0-1.377,0.981-2.277,2.341-2.277c0.685,0,1.521,0.216,2.125,0.558L30.574,48.71z"/>
<path fill="#FFFFFF" d="M21.086,42.172C9.459,42.172,0,32.713,0,21.086S9.459,0,21.086,0s21.086,9.459,21.086,21.086
	S32.713,42.172,21.086,42.172 M21.086,3C11.113,3,3,11.113,3,21.086s8.113,18.086,18.086,18.086s18.086-8.113,18.086-18.086
	S31.059,3,21.086,3"/>
<path fill="#FFFFFF" d="M26.188,27.245H15.983v-2.91c0-1.544-0.604-3.074-1.747-4.425c-1.316-1.556-1.917-3.494-1.691-5.456
	c0.411-3.58,3.603-6.458,7.586-6.844c2.646-0.254,5.217,0.562,7.066,2.242c1.597,1.448,2.475,3.372,2.475,5.414
	c0,1.74-0.664,3.444-1.873,4.799c-1.039,1.166-1.611,2.682-1.611,4.27V27.245z M18.983,24.245h4.204
	c0.021-2.292,0.861-4.482,2.373-6.176c0.728-0.816,1.111-1.786,1.111-2.803c0-1.187-0.529-2.32-1.491-3.193
	c-1.225-1.112-2.96-1.649-4.761-1.477c-2.543,0.246-4.647,2.052-4.895,4.199c-0.167,1.45,0.453,2.528,1.002,3.177
	C18.112,19.847,18.961,22.014,18.983,24.245"/>
<rect x="16.248" y="28.355" fill="#FFFFFF" width="9.675" height="3"/>
<rect x="18.414" y="32.465" fill="#FFFFFF" width="5.344" height="3"/>
</svg>
