<?xml version="1.0" encoding="utf-8"?>
<!-- Generator: Adobe Illustrator 16.0.3, SVG Export Plug-In . SVG Version: 6.00 Build 0)  -->
<!DOCTYPE svg PUBLIC "-//W3C//DTD SVG 1.1//EN" "http://www.w3.org/Graphics/SVG/1.1/DTD/svg11.dtd">
<svg version="1.1" id="Layer_1" xmlns="http://www.w3.org/2000/svg" xmlns:xlink="http://www.w3.org/1999/xlink" x="0px" y="0px"
	 width="46.524px" height="63.68px" viewBox="0 0 46.524 63.68" enable-background="new 0 0 46.524 63.68" xml:space="preserve">
<text transform="matrix(1 0 0 1 10.3867 60.04)"><tspan x="0" y="0" fill="#231F20" font-family="'Futura-Bold'" font-size="10.5797" letter-spacing="1">TIP</tspan><tspan x="19.741" y="0" fill="#231F20" font-family="'Futura-Bold'" font-size="10.5797">S</tspan></text>
<path fill="#251F12" d="M45.024,23.263c0,12.019-9.743,21.762-21.762,21.762c-12.02,0-21.763-9.743-21.763-21.762
	C1.5,11.242,11.243,1.5,23.263,1.5C35.281,1.5,45.024,11.242,45.024,23.263"/>
<circle fill="none" stroke="#251F12" stroke-width="3" stroke-miterlimit="10" cx="23.262" cy="23.263" r="21.762"/>
<path fill="none" stroke="#FFFFFF" stroke-width="3" stroke-miterlimit="10" d="M31.138,16.796c0-4.064-4.022-7.308-8.774-6.847
	c-3.632,0.352-6.569,2.954-6.935,6.135c-0.208,1.803,0.382,3.479,1.496,4.796c1.475,1.743,2.336,3.824,2.336,5.993v1.566h8.004
	v-1.567c0-2.108,0.73-4.189,2.213-5.852C30.518,19.854,31.138,18.39,31.138,16.796z"/>
<line fill="none" stroke="#FFFFFF" stroke-width="3" stroke-miterlimit="10" x1="17.887" y1="33.006" x2="28.638" y2="33.006"/>
<line fill="none" stroke="#FFFFFF" stroke-width="3" stroke-miterlimit="10" x1="20.294" y1="37.573" x2="26.23" y2="37.573"/>
</svg>
