<?xml version="1.0" encoding="utf-8"?>
<!-- Generator: Adobe Illustrator 16.0.3, SVG Export Plug-In . SVG Version: 6.00 Build 0)  -->
<!DOCTYPE svg PUBLIC "-//W3C//DTD SVG 1.1//EN" "http://www.w3.org/Graphics/SVG/1.1/DTD/svg11.dtd">
<svg version="1.1" id="Layer_1" xmlns="http://www.w3.org/2000/svg" xmlns:xlink="http://www.w3.org/1999/xlink" x="0px" y="0px"
	 width="30.048px" height="30.048px" viewBox="0 0 30.048 30.048" enable-background="new 0 0 30.048 30.048" xml:space="preserve">
<g>
	<path fill="#FFFFFF" d="M15.024,30.048C6.74,30.048,0,23.308,0,15.023S6.74,0,15.024,0c8.284,0,15.023,6.739,15.023,15.023
		S23.309,30.048,15.024,30.048z M15.024,1.963c-7.202,0-13.062,5.859-13.062,13.061c0,7.202,5.859,13.062,13.062,13.062
		s13.06-5.859,13.06-13.062C28.084,7.822,22.227,1.963,15.024,1.963z"/>
	<path fill="#FFFFFF" d="M20.259,12.34c0.007,0.115,0.008,0.231,0.008,0.349c0,3.569-2.716,7.686-7.686,7.686
		c-1.525,0-2.944-0.446-4.14-1.213c0.212,0.023,0.426,0.037,0.645,0.037c1.267,0,2.43-0.431,3.354-1.156
		c-1.182-0.022-2.18-0.804-2.523-1.875c0.166,0.03,0.334,0.048,0.508,0.048c0.248,0,0.485-0.034,0.712-0.095
		c-1.234-0.249-2.167-1.341-2.167-2.648c0-0.012,0-0.023,0-0.034c0.365,0.202,0.781,0.323,1.223,0.337
		c-0.725-0.483-1.201-1.311-1.201-2.248c0-0.495,0.133-0.959,0.365-1.358c1.333,1.635,3.324,2.71,5.568,2.822
		c-0.045-0.197-0.069-0.403-0.069-0.615c0-1.491,1.209-2.7,2.702-2.7c0.776,0,1.479,0.328,1.971,0.852
		c0.615-0.12,1.194-0.346,1.717-0.655c-0.203,0.632-0.631,1.16-1.188,1.495c0.546-0.064,1.066-0.211,1.551-0.425
		C21.246,11.483,20.787,11.959,20.259,12.34z"/>
</g>
</svg>
