<?xml version="1.0" encoding="utf-8"?>
<!-- Generator: Adobe Illustrator 16.0.3, SVG Export Plug-In . SVG Version: 6.00 Build 0)  -->
<!DOCTYPE svg PUBLIC "-//W3C//DTD SVG 1.1//EN" "http://www.w3.org/Graphics/SVG/1.1/DTD/svg11.dtd">
<svg version="1.1" id="Layer_1" xmlns="http://www.w3.org/2000/svg" xmlns:xlink="http://www.w3.org/1999/xlink" x="0px" y="0px"
	 width="42.173px" height="54.583px" viewBox="0 0 42.173 54.583" enable-background="new 0 0 42.173 54.583" xml:space="preserve">
<path fill="#FFFFFF" d="M21.087,42.172C9.46,42.172,0,32.713,0,21.086S9.46,0,21.087,0s21.086,9.459,21.086,21.086
	S32.714,42.172,21.087,42.172 M21.087,3C11.113,3,3,11.113,3,21.086s8.113,18.086,18.087,18.086c9.973,0,18.086-8.113,18.086-18.086
	S31.06,3,21.087,3"/>
<path fill="#FFFFFF" d="M26.712,23.604c-1.442,0-2.749,0.578-3.716,1.506l-4.757-2.746c0.101-0.412,0.17-0.836,0.17-1.277
	c0-0.443-0.069-0.867-0.17-1.278l4.757-2.747c0.967,0.928,2.273,1.506,3.716,1.506c2.968,0,5.383-2.415,5.383-5.383
	s-2.415-5.383-5.383-5.383s-5.383,2.415-5.383,5.383c0,0.442,0.069,0.865,0.17,1.278l-4.757,2.746
	c-0.967-0.928-2.273-1.506-3.717-1.506c-2.967,0-5.382,2.415-5.382,5.384c0,2.967,2.415,5.382,5.382,5.382
	c1.443,0,2.748-0.578,3.717-1.506l4.757,2.747c-0.101,0.411-0.17,0.836-0.17,1.277c0,2.968,2.415,5.383,5.383,5.383
	s5.383-2.415,5.383-5.383S29.68,23.604,26.712,23.604 M26.712,10.73c1.366,0,2.479,1.101,2.479,2.454
	c0,1.353-1.112,2.454-2.479,2.454s-2.479-1.102-2.479-2.454C24.232,11.831,25.346,10.73,26.712,10.73 M13.025,23.54
	c-1.365,0-2.478-1.102-2.478-2.453c0-1.354,1.112-2.455,2.478-2.455c1.367,0,2.479,1.101,2.479,2.455
	C15.505,22.438,14.393,23.54,13.025,23.54 M26.712,31.441c-1.366,0-2.479-1.102-2.479-2.454c0-1.354,1.113-2.454,2.479-2.454
	s2.479,1.101,2.479,2.454C29.19,30.34,28.078,31.441,26.712,31.441"/>
<path fill="#FFFFFF" d="M9.051,52.317c0,0.442-0.112,0.836-0.337,1.18c-0.226,0.343-0.549,0.609-0.972,0.801
	c-0.423,0.189-0.92,0.285-1.489,0.285c-0.476,0-0.874-0.033-1.196-0.1c-0.322-0.067-0.657-0.184-1.006-0.35v-1.719
	c0.368,0.188,0.75,0.336,1.146,0.441c0.398,0.107,0.763,0.159,1.095,0.159c0.286,0,0.496-0.05,0.63-0.149
	c0.134-0.099,0.2-0.227,0.2-0.383c0-0.098-0.026-0.184-0.081-0.256c-0.054-0.074-0.14-0.147-0.258-0.222
	c-0.119-0.076-0.436-0.229-0.95-0.459c-0.466-0.213-0.814-0.417-1.048-0.616c-0.232-0.198-0.404-0.426-0.518-0.684
	C4.156,49.99,4.1,49.686,4.1,49.334c0-0.657,0.239-1.17,0.718-1.537c0.479-0.369,1.136-0.553,1.973-0.553
	c0.739,0,1.491,0.171,2.261,0.513L8.46,49.246c-0.667-0.306-1.243-0.459-1.729-0.459c-0.251,0-0.433,0.044-0.547,0.132
	s-0.171,0.197-0.171,0.327c0,0.14,0.072,0.266,0.217,0.376c0.146,0.11,0.538,0.312,1.18,0.605c0.615,0.277,1.043,0.574,1.281,0.891
	C8.932,51.437,9.051,51.837,9.051,52.317"/>
<polygon fill="#FFFFFF" points="16.772,54.485 14.834,54.485 14.834,51.575 12.593,51.575 12.593,54.485 10.654,54.485 
	10.654,47.347 12.593,47.347 12.593,49.993 14.834,49.993 14.834,47.347 16.772,47.347 "/>
<path fill="#FFFFFF" d="M23.195,54.485l-0.352-1.338h-2.319l-0.361,1.338h-2.119l2.329-7.168h2.573l2.358,7.168H23.195z
	 M22.443,51.565l-0.309-1.172c-0.07-0.261-0.157-0.598-0.261-1.011c-0.102-0.413-0.17-0.71-0.202-0.889
	c-0.029,0.166-0.087,0.439-0.173,0.82c-0.087,0.381-0.278,1.131-0.575,2.251H22.443z"/>
<path fill="#FFFFFF" d="M28.505,51.888v2.598h-1.929v-7.139h2.339c1.94,0,2.91,0.703,2.91,2.109c0,0.827-0.403,1.467-1.212,1.919
	l2.08,3.11h-2.187l-1.514-2.598H28.505z M28.505,50.438h0.361c0.674,0,1.011-0.298,1.011-0.894c0-0.491-0.33-0.737-0.991-0.737
	h-0.381V50.438z"/>
<polygon fill="#FFFFFF" points="38.082,54.485 33.844,54.485 33.844,47.347 38.082,47.347 38.082,48.895 35.771,48.895 
	35.771,50.018 37.911,50.018 37.911,51.565 35.771,51.565 35.771,52.913 38.082,52.913 "/>
</svg>
