<?xml version="1.0" encoding="utf-8"?>
<!-- Generator: Adobe Illustrator 16.0.3, SVG Export Plug-In . SVG Version: 6.00 Build 0)  -->
<!DOCTYPE svg PUBLIC "-//W3C//DTD SVG 1.1//EN" "http://www.w3.org/Graphics/SVG/1.1/DTD/svg11.dtd">
<svg version="1.1" id="Layer_1" xmlns="http://www.w3.org/2000/svg" xmlns:xlink="http://www.w3.org/1999/xlink" x="0px" y="0px"
	 width="46.525px" height="72.835px" viewBox="0 0 46.525 72.835" enable-background="new 0 0 46.525 72.835" xml:space="preserve">
<circle fill="none" stroke="#FFFFFF" stroke-width="3" stroke-miterlimit="10" cx="23.263" cy="23.262" r="21.763"/>
<path fill="none" stroke="#FFFFFF" stroke-width="3" stroke-miterlimit="10" d="M13.015,18.78c1.728-3.944,5.666-6.7,10.248-6.7
	c6.175,0,11.182,5.007,11.182,11.182c0,6.176-5.007,11.183-11.182,11.183c-3.86,0-7.263-1.956-9.272-4.931"/>
<polygon fill="#FFFFFF" points="8.127,16.921 18.422,19.311 12.08,23.262 "/>
<g>
	<path fill="#FFFFFF" d="M7.138,52.732v4.338c0,0.233,0.008,0.471,0.026,0.714c0.018,0.244,0.07,0.464,0.159,0.662
		c0.088,0.197,0.228,0.357,0.418,0.481c0.19,0.123,0.458,0.185,0.804,0.185s0.612-0.062,0.799-0.185
		c0.187-0.124,0.326-0.284,0.418-0.481c0.092-0.198,0.146-0.418,0.164-0.662c0.018-0.243,0.026-0.48,0.026-0.714v-4.338h2.063v4.624
		c0,1.241-0.284,2.147-0.852,2.719s-1.44,0.857-2.619,0.857c-1.178,0-2.052-0.286-2.624-0.857s-0.857-1.478-0.857-2.719v-4.624
		H7.138z"/>
	<path fill="#FFFFFF" d="M14.745,60.71v-7.978h2.074l3.83,4.878v-4.878h2.063v7.978h-2.063l-3.83-4.877v4.877H14.745z"/>
	<path fill="#FFFFFF" d="M25.43,52.732h3.068c0.543,0,1.053,0.109,1.529,0.328c0.476,0.219,0.892,0.51,1.248,0.873
		c0.355,0.363,0.637,0.786,0.842,1.27c0.203,0.483,0.307,0.989,0.307,1.519c0,0.521-0.102,1.024-0.303,1.507
		c-0.2,0.483-0.479,0.909-0.835,1.275c-0.356,0.367-0.772,0.659-1.249,0.878c-0.476,0.219-0.988,0.328-1.539,0.328H25.43V52.732z
		 M27.504,58.954h0.477c0.359,0,0.68-0.057,0.962-0.17c0.282-0.112,0.521-0.268,0.714-0.465c0.194-0.198,0.342-0.433,0.445-0.704
		c0.102-0.271,0.152-0.569,0.152-0.894c0-0.317-0.053-0.614-0.158-0.889c-0.105-0.275-0.256-0.512-0.449-0.709
		c-0.194-0.197-0.433-0.353-0.715-0.466c-0.281-0.112-0.6-0.169-0.951-0.169h-0.477V58.954z"/>
	<path fill="#FFFFFF" d="M34.444,56.722c0-0.593,0.109-1.145,0.328-1.656c0.218-0.511,0.522-0.957,0.909-1.338
		c0.389-0.381,0.852-0.679,1.392-0.895c0.54-0.215,1.134-0.322,1.782-0.322c0.643,0,1.234,0.107,1.777,0.322
		c0.544,0.216,1.012,0.514,1.402,0.895c0.392,0.381,0.697,0.827,0.916,1.338c0.218,0.512,0.327,1.063,0.327,1.656
		c0,0.592-0.109,1.145-0.327,1.655c-0.219,0.512-0.524,0.958-0.916,1.339c-0.391,0.381-0.858,0.679-1.402,0.894
		c-0.543,0.215-1.135,0.323-1.777,0.323c-0.648,0-1.242-0.108-1.782-0.323s-1.003-0.513-1.392-0.894
		c-0.387-0.381-0.691-0.827-0.909-1.339C34.554,57.866,34.444,57.313,34.444,56.722z M36.613,56.722c0,0.317,0.06,0.609,0.18,0.878
		c0.12,0.268,0.282,0.501,0.486,0.698c0.205,0.197,0.443,0.351,0.715,0.46s0.559,0.164,0.861,0.164c0.304,0,0.592-0.055,0.863-0.164
		s0.511-0.263,0.719-0.46c0.209-0.197,0.372-0.431,0.492-0.698c0.12-0.269,0.18-0.561,0.18-0.878s-0.06-0.61-0.18-0.879
		c-0.12-0.268-0.283-0.5-0.492-0.698c-0.208-0.197-0.447-0.351-0.719-0.46s-0.56-0.164-0.863-0.164c-0.303,0-0.59,0.055-0.861,0.164
		s-0.51,0.263-0.715,0.46c-0.204,0.198-0.366,0.431-0.486,0.698C36.673,56.111,36.613,56.404,36.613,56.722z"/>
</g>
<g>
	<path fill="#FFFFFF" d="M11.762,64.635v6.222h2.486v1.756h-4.56v-7.978H11.762z"/>
	<path fill="#FFFFFF" d="M21.262,71.227H18.3l-0.476,1.386h-2.211l3.036-7.978h2.264l3.037,7.978h-2.211L21.262,71.227z
		 M20.712,69.65l-0.931-2.656L18.85,69.65H20.712z"/>
	<path fill="#FFFFFF" d="M30.297,66.677c-0.226-0.183-0.451-0.318-0.678-0.407c-0.225-0.088-0.443-0.132-0.655-0.132
		c-0.269,0-0.487,0.063-0.655,0.19c-0.17,0.127-0.254,0.293-0.254,0.497c0,0.142,0.041,0.258,0.127,0.349
		c0.084,0.092,0.195,0.172,0.332,0.238c0.139,0.067,0.293,0.126,0.466,0.175c0.173,0.05,0.345,0.103,0.513,0.158
		c0.678,0.227,1.174,0.527,1.487,0.905c0.313,0.377,0.471,0.869,0.471,1.476c0,0.409-0.069,0.779-0.206,1.111
		c-0.138,0.331-0.339,0.615-0.604,0.852c-0.264,0.236-0.589,0.42-0.973,0.55c-0.385,0.131-0.82,0.196-1.307,0.196
		c-1.01,0-1.943-0.3-2.805-0.899l0.889-1.672c0.311,0.275,0.617,0.479,0.921,0.613c0.304,0.135,0.603,0.201,0.899,0.201
		c0.338,0,0.591-0.077,0.756-0.232c0.166-0.155,0.249-0.332,0.249-0.529c0-0.12-0.021-0.224-0.063-0.312
		c-0.042-0.088-0.113-0.169-0.211-0.243c-0.1-0.074-0.229-0.143-0.387-0.206s-0.352-0.134-0.576-0.212
		c-0.269-0.084-0.531-0.178-0.789-0.28c-0.257-0.102-0.486-0.237-0.688-0.407c-0.201-0.169-0.363-0.383-0.486-0.64
		c-0.123-0.258-0.186-0.584-0.186-0.979c0-0.396,0.065-0.753,0.196-1.074c0.13-0.321,0.313-0.596,0.55-0.825
		s0.525-0.407,0.867-0.534s0.725-0.19,1.148-0.19c0.395,0,0.808,0.055,1.238,0.164c0.43,0.109,0.842,0.27,1.237,0.481L30.297,66.677
		z"/>
	<path fill="#FFFFFF" d="M36.836,66.392v6.221h-2.074v-6.221h-1.703v-1.757h5.48v1.757H36.836z"/>
</g>
</svg>
