<?xml version="1.0" encoding="utf-8"?>
<!-- Generator: Adobe Illustrator 16.0.3, SVG Export Plug-In . SVG Version: 6.00 Build 0)  -->
<!DOCTYPE svg PUBLIC "-//W3C//DTD SVG 1.1//EN" "http://www.w3.org/Graphics/SVG/1.1/DTD/svg11.dtd">
<svg version="1.1" id="Layer_1" xmlns="http://www.w3.org/2000/svg" xmlns:xlink="http://www.w3.org/1999/xlink" x="0px" y="0px"
	 width="42.172px" height="66.583px" viewBox="0 0 42.172 66.583" enable-background="new 0 0 42.172 66.583" xml:space="preserve">
<path fill="#FFFFFF" d="M21.086,42.172C9.459,42.172,0,32.713,0,21.086S9.459,0,21.086,0c11.627,0,21.086,9.459,21.086,21.086
	S32.713,42.172,21.086,42.172 M21.086,3C11.113,3,3,11.113,3,21.086s8.113,18.086,18.086,18.086s18.086-8.113,18.086-18.086
	S31.059,3,21.086,3"/>
<path fill="#FFFFFF" d="M21.086,9.522c-4.293,0-8.151,2.321-10.175,6.08L7.22,14.653l3.802,6.432l6.435-3.799l-3.518-0.905
	c1.574-2.4,4.223-3.858,7.147-3.858c4.722,0,8.563,3.842,8.563,8.562c0,4.723-3.841,8.564-8.563,8.564
	c-2.85,0-5.505-1.412-7.103-3.776l-2.485,1.68c2.156,3.191,5.74,5.097,9.588,5.097c6.375,0,11.563-5.188,11.563-11.564
	C32.649,14.709,27.461,9.522,21.086,9.522"/>
<path fill="#FFFFFF" d="M11.839,47.347v4.297c0,0.935-0.265,1.658-0.793,2.17c-0.529,0.514-1.292,0.77-2.288,0.77
	c-0.973,0-1.721-0.249-2.244-0.747c-0.522-0.498-0.783-1.214-0.783-2.148v-4.341h1.938v4.189c0,0.505,0.094,0.872,0.283,1.099
	c0.189,0.228,0.468,0.342,0.835,0.342c0.394,0,0.68-0.113,0.857-0.339c0.177-0.227,0.266-0.597,0.266-1.111v-4.18H11.839z"/>
<path fill="#FFFFFF" d="M20.555,54.485h-2.529l-2.608-5.029h-0.044c0.062,0.791,0.093,1.395,0.093,1.812v3.218h-1.709v-7.139h2.52
	l2.597,4.961h0.03c-0.046-0.72-0.069-1.297-0.069-1.733v-3.228h1.719V54.485z"/>
<path fill="#FFFFFF" d="M28.407,50.765c0,1.191-0.328,2.109-0.983,2.754c-0.656,0.645-1.578,0.967-2.767,0.967h-2.31v-7.139h2.472
	c1.146,0,2.029,0.293,2.653,0.879C28.095,48.812,28.407,49.658,28.407,50.765 M26.405,50.833c0-0.654-0.129-1.14-0.388-1.455
	s-0.651-0.474-1.179-0.474h-0.562v3.999h0.431c0.586,0,1.015-0.17,1.288-0.51C26.268,52.053,26.405,51.533,26.405,50.833"/>
<path fill="#FFFFFF" d="M36.657,50.906c0,1.201-0.295,2.114-0.885,2.739c-0.589,0.625-1.451,0.938-2.588,0.938
	c-1.119,0-1.979-0.314-2.575-0.942s-0.896-1.543-0.896-2.744c0-1.188,0.297-2.096,0.891-2.722c0.594-0.627,1.457-0.94,2.59-0.94
	c1.137,0,1.997,0.311,2.583,0.933C36.364,48.789,36.657,49.702,36.657,50.906 M31.745,50.906c0,1.38,0.479,2.07,1.439,2.07
	c0.489,0,0.852-0.168,1.087-0.503c0.236-0.335,0.354-0.857,0.354-1.567c0-0.713-0.12-1.239-0.359-1.579
	c-0.239-0.341-0.598-0.511-1.072-0.511C32.227,48.816,31.745,49.513,31.745,50.906"/>
<polygon fill="#FFFFFF" points="8.727,66.485 8.727,59.347 10.656,59.347 10.656,64.928 13.405,64.928 13.405,66.485 "/>
<path fill="#FFFFFF" d="M19.427,66.485l-0.352-1.338h-2.319l-0.361,1.338h-2.119l2.329-7.168h2.573l2.358,7.168H19.427z
	 M18.675,63.565l-0.308-1.172c-0.071-0.261-0.158-0.598-0.261-1.011c-0.102-0.413-0.17-0.71-0.202-0.889
	c-0.03,0.166-0.087,0.439-0.174,0.82c-0.086,0.381-0.277,1.131-0.574,2.251H18.675z"/>
<path fill="#FFFFFF" d="M27.476,64.317c0,0.442-0.112,0.836-0.337,1.18c-0.225,0.343-0.548,0.609-0.973,0.801
	c-0.422,0.189-0.918,0.285-1.488,0.285c-0.475,0-0.874-0.033-1.196-0.1c-0.321-0.067-0.657-0.184-1.006-0.35v-1.719
	c0.368,0.188,0.75,0.336,1.147,0.441c0.396,0.107,0.762,0.159,1.094,0.159c0.287,0,0.497-0.05,0.63-0.149
	c0.133-0.099,0.2-0.227,0.2-0.383c0-0.098-0.027-0.184-0.08-0.256c-0.055-0.074-0.141-0.147-0.26-0.222
	c-0.118-0.076-0.436-0.229-0.949-0.459c-0.465-0.213-0.814-0.417-1.047-0.616c-0.233-0.198-0.405-0.426-0.519-0.684
	c-0.112-0.257-0.168-0.562-0.168-0.913c0-0.657,0.239-1.17,0.718-1.537c0.479-0.369,1.137-0.553,1.973-0.553
	c0.738,0,1.492,0.171,2.261,0.513l-0.591,1.489c-0.667-0.306-1.243-0.459-1.729-0.459c-0.25,0-0.433,0.044-0.547,0.132
	c-0.113,0.088-0.171,0.197-0.171,0.327c0,0.14,0.072,0.266,0.218,0.376c0.145,0.11,0.537,0.312,1.178,0.605
	c0.617,0.277,1.043,0.574,1.283,0.891C27.356,63.437,27.476,63.837,27.476,64.317"/>
<polygon fill="#FFFFFF" points="32.229,66.485 30.299,66.485 30.299,60.923 28.557,60.923 28.557,59.347 33.967,59.347 
	33.967,60.923 32.229,60.923 "/>
</svg>
