<?xml version="1.0" encoding="utf-8"?>
<!-- Generator: Adobe Illustrator 16.0.3, SVG Export Plug-In . SVG Version: 6.00 Build 0)  -->
<!DOCTYPE svg PUBLIC "-//W3C//DTD SVG 1.1//EN" "http://www.w3.org/Graphics/SVG/1.1/DTD/svg11.dtd">
<svg version="1.1" id="Layer_1" xmlns="http://www.w3.org/2000/svg" xmlns:xlink="http://www.w3.org/1999/xlink" x="0px" y="0px"
	 width="46.524px" height="76.253px" viewBox="0 0 46.524 76.253" enable-background="new 0 0 46.524 76.253" xml:space="preserve">
<circle fill="none" stroke="#251F12" stroke-width="3" stroke-miterlimit="10" cx="23.262" cy="23.263" r="21.762"/>
<path fill="none" stroke="#251F12" stroke-width="3" stroke-miterlimit="10" d="M13.015,18.78c1.728-3.944,5.666-6.7,10.247-6.7
	c6.176,0,11.182,5.007,11.182,11.183c0,6.175-5.006,11.182-11.182,11.182c-3.859,0-7.263-1.956-9.272-4.93"/>
<polygon fill="#251F12" points="8.127,16.921 18.422,19.311 12.08,23.263 "/>
<text transform="matrix(1 0 0 1 4.2285 60.7109)"><tspan x="0" y="0" fill="#231F20" font-family="'Futura-Bold'" font-size="10.5797" letter-spacing="1">U</tspan><tspan x="9.68" y="0" fill="#231F20" font-family="'Futura-Bold'" font-size="10.5797" letter-spacing="1">N</tspan><tspan x="20.366" y="0" fill="#231F20" font-family="'Futura-Bold'" font-size="10.5797" letter-spacing="1">D</tspan><tspan x="29.739" y="0" fill="#231F20" font-family="'Futura-Bold'" font-size="10.5797">O</tspan></text>
<text transform="matrix(1 0 0 1 8.8521 72.6133)"><tspan x="0" y="0" fill="#231F20" font-family="'Futura-Bold'" font-size="10.5797" letter-spacing="1">LAS</tspan><tspan x="24.122" y="0" fill="#231F20" font-family="'Futura-Bold'" font-size="10.5797">T</tspan></text>
</svg>
